<svg width="38" height="38" viewBox="0 0 38 38" fill="none" xmlns="http://www.w3.org/2000/svg">
<path fill-rule="evenodd" clip-rule="evenodd" d="M19 37.75C29.3553 37.75 37.75 29.3553 37.75 19C37.75 8.64466 29.3553 0.25 19 0.25C8.64466 0.25 0.25 8.64466 0.25 19C0.25 29.3553 8.64466 37.75 19 37.75ZM28.1016 13.3902C28.4551 12.9659 28.3978 12.3353 27.9735 11.9818C27.5492 11.6282 26.9187 11.6855 26.5651 12.1098L17.5505 22.9274C17.2038 23.3434 17.0089 23.5738 16.8532 23.7153L16.8473 23.7207L16.8409 23.7159C16.6731 23.589 16.4581 23.3772 16.0752 22.9943L11.3738 18.2929C10.9832 17.9024 10.3501 17.9024 9.95956 18.2929C9.56904 18.6834 9.56903 19.3166 9.95956 19.7071L14.6609 24.4085L14.7018 24.4493C15.0283 24.776 15.3424 25.0902 15.6346 25.3111C15.962 25.5587 16.3907 25.7915 16.9401 25.7665C17.4895 25.7416 17.8954 25.471 18.199 25.1948C18.47 24.9483 18.7544 24.6069 19.05 24.2521L19.0869 24.2077L28.1016 13.3902Z" fill="#73C97C"/>
</svg>
