<svg width="140" height="140" viewBox="0 0 140 140" fill="none" xmlns="http://www.w3.org/2000/svg">
<path d="M70 140C108.66 140 140 108.66 140 70C140 31.3401 108.66 0 70 0C31.3401 0 0 31.3401 0 70C0 108.66 31.3401 140 70 140Z" fill="#8F2525"/>
<g clip-path="url(#clip0_808_272)">
<path d="M36.6896 28H104.759C106.358 28 107.655 29.2969 107.655 30.8966V71.4483C107.655 73.0479 106.358 74.3448 104.759 74.3448H36.6896C35.09 74.3448 33.7931 73.0479 33.7931 71.4483V30.8966C33.7931 29.2969 35.09 28 36.6896 28Z" fill="#E6AC69"/>
<path d="M30.8966 41.0344H46.8276C48.4272 41.0344 49.7241 42.3314 49.7241 43.931V52.6206C49.7241 54.2202 48.4272 55.5172 46.8276 55.5172H28V43.931C28 42.3314 29.2969 41.0344 30.8966 41.0344Z" fill="#FFBF75"/>
<path d="M28 55.5172H33.7931V61.3103H30.8966C29.2969 61.3103 28 60.0134 28 58.4138V55.5172Z" fill="#CC995E"/>
<path d="M45.3793 48.2759C45.3793 49.8755 44.0823 51.1725 42.4827 51.1725C40.8831 51.1725 39.5862 49.8755 39.5862 48.2759C39.5862 46.6763 40.8831 45.3794 42.4827 45.3794C44.0823 45.3794 45.3793 46.6763 45.3793 48.2759Z" fill="#B38652"/>
<path d="M80.1379 36.6897H93.1724V39.5862H80.1379V36.6897Z" fill="#55965C"/>
<path d="M63.2649 47.177L73.4028 38.4873L75.2867 40.6852L65.1488 49.3748L63.2649 47.177Z" fill="#55965C"/>
<path d="M54.069 48.2759H58.4138V51.1725H54.069V48.2759Z" fill="#55965C"/>
<path d="M98.9656 36.6897H103.31V39.5862H98.9656V36.6897Z" fill="#55965C"/>
<path d="M75.7931 35.2414H78.6897C79.4895 35.2414 80.1379 35.8899 80.1379 36.6897V39.5862C80.1379 40.386 79.4895 41.0345 78.6897 41.0345H75.7931C74.9933 41.0345 74.3448 40.386 74.3448 39.5862V36.6897C74.3448 35.8899 74.9933 35.2414 75.7931 35.2414Z" fill="#55965C"/>
<path d="M78.6896 42.4827H75.793C74.1941 42.4806 72.8986 41.1851 72.8965 39.5862V36.6896C72.8986 35.0907 74.1941 33.7952 75.793 33.7931H78.6896C80.2885 33.7952 81.584 35.0907 81.5861 36.6896V39.5862C81.584 41.1851 80.2885 42.4806 78.6896 42.4827ZM75.793 36.6896V39.5862H78.6924L78.6896 36.6896H75.793Z" fill="#73C97C"/>
<path d="M94.6208 35.2414H97.5173C98.3171 35.2414 98.9656 35.8899 98.9656 36.6897V39.5862C98.9656 40.386 98.3171 41.0345 97.5173 41.0345H94.6208C93.821 41.0345 93.1725 40.386 93.1725 39.5862V36.6897C93.1725 35.8899 93.821 35.2414 94.6208 35.2414Z" fill="#55965C"/>
<path d="M97.5172 42.4827H94.6207C93.0218 42.4806 91.7262 41.1851 91.7241 39.5862V36.6896C91.7262 35.0907 93.0218 33.7952 94.6207 33.7931H97.5172C99.1161 33.7952 100.412 35.0907 100.414 36.6896V39.5862C100.412 41.1851 99.1161 42.4806 97.5172 42.4827ZM94.6207 36.6896V39.5862H97.5201L97.5172 36.6896H94.6207Z" fill="#73C97C"/>
<path d="M71.4482 51.1725H74.3448V54.069H71.4482V51.1725Z" fill="#B38652"/>
<path d="M59.8621 46.8275H62.7586C63.5585 46.8275 64.2069 47.476 64.2069 48.2758V51.1723C64.2069 51.9721 63.5585 52.6206 62.7586 52.6206H59.8621C59.0623 52.6206 58.4138 51.9721 58.4138 51.1723V48.2758C58.4138 47.476 59.0623 46.8275 59.8621 46.8275Z" fill="#55965C"/>
<path d="M62.7587 54.069H59.8621C58.2632 54.0669 56.9677 52.7714 56.9656 51.1725V48.2759C56.9677 46.677 58.2632 45.3815 59.8621 45.3794H62.7587C64.3576 45.3815 65.6531 46.677 65.6552 48.2759V51.1725C65.6531 52.7714 64.3576 54.0669 62.7587 54.069ZM59.8621 48.2759V51.1725H62.7615L62.7587 48.2759H59.8621Z" fill="#73C97C"/>
<path d="M77.2413 51.1725H97.5172V54.069H77.2413V51.1725Z" fill="#B38652"/>
<path d="M100.414 51.1725H103.31V54.069H100.414V51.1725Z" fill="#B38652"/>
<path d="M74.3448 45.3794H77.2414V48.2759H74.3448V45.3794Z" fill="#B38652"/>
<path d="M80.1379 45.3794H97.5173V48.2759H80.1379V45.3794Z" fill="#B38652"/>
<path d="M100.414 45.3794H103.31V48.2759H100.414V45.3794Z" fill="#B38652"/>
<path d="M97.5172 98.9655H43.931C42.3314 98.9655 41.0344 97.6686 41.0344 96.069V64.2069C41.0344 62.6073 42.3314 61.3104 43.931 61.3104H97.5172C99.1168 61.3104 100.414 62.6073 100.414 64.2069V96.069C100.414 97.6686 99.1168 98.9655 97.5172 98.9655Z" fill="#D6D6D6"/>
<path d="M100.414 81.5861H41.0344V68.5516H100.414V81.5861Z" fill="#707070"/>
<path d="M109.103 112H55.5172C53.9175 112 52.6206 110.703 52.6206 109.103V77.2414C52.6206 75.6418 53.9175 74.3448 55.5172 74.3448H109.103C110.703 74.3448 112 75.6418 112 77.2414V109.103C112 110.703 110.703 112 109.103 112Z" fill="#EFEFEF"/>
<path d="M103.31 94.6207H94.6207C93.0211 94.6207 91.7241 93.3237 91.7241 91.7241V83.0344C91.7241 81.4348 93.0211 80.1379 94.6207 80.1379H103.31C104.91 80.1379 106.207 81.4348 106.207 83.0344V91.7241C106.207 93.3237 104.91 94.6207 103.31 94.6207Z" fill="#FFD04A"/>
<path d="M77.2413 104.759H72.8965C72.0967 104.759 71.4482 104.11 71.4482 103.31V98.9655C71.4482 98.1657 72.0967 97.5172 72.8965 97.5172H77.2413C78.0411 97.5172 78.6896 98.1657 78.6896 98.9655V103.31C78.6896 104.11 78.0411 104.759 77.2413 104.759Z" fill="#75C1FF"/>
<path d="M64.2069 104.759H59.8621C59.0623 104.759 58.4138 104.11 58.4138 103.31V98.9655C58.4138 98.1657 59.0623 97.5172 59.8621 97.5172H64.2069C65.0067 97.5172 65.6552 98.1657 65.6552 98.9655V103.31C65.6552 104.11 65.0067 104.759 64.2069 104.759Z" fill="#73C97C"/>
<path d="M96.069 94.6208H98.9655V90.2759H106.207V87.3794H98.9655C97.3666 87.3808 96.0704 88.677 96.069 90.2759V94.6208Z" fill="#E6BB43"/>
<path d="M96.069 80.1379H98.9655V84.4827H96.069V80.1379Z" fill="#E6BB43"/>
<path d="M84.4829 83.0344H87.3795V85.931H84.4829V83.0344Z" fill="#BCBCBC"/>
<path d="M62.7587 83.0344H81.5863V85.931H62.7587V83.0344Z" fill="#BCBCBC"/>
<path d="M56.9656 83.0344H59.8621V85.931H56.9656V83.0344Z" fill="#BCBCBC"/>
<path d="M84.4829 88.8275H87.3795V91.7241H84.4829V88.8275Z" fill="#BCBCBC"/>
<path d="M62.7587 88.8275H81.5863V91.7241H62.7587V88.8275Z" fill="#BCBCBC"/>
<path d="M56.9656 88.8275H59.8621V91.7241H56.9656V88.8275Z" fill="#BCBCBC"/>
<path d="M103.31 100.414H106.207V103.31H103.31V100.414Z" fill="#BCBCBC"/>
<path d="M97.5172 100.414H100.414V103.31H97.5172V100.414Z" fill="#BCBCBC"/>
<path d="M91.7241 100.414H94.6207V103.31H91.7241V100.414Z" fill="#BCBCBC"/>
<path d="M85.9312 100.414H88.8277V103.31H85.9312V100.414Z" fill="#BCBCBC"/>
</g>
<defs>
<clipPath id="clip0_808_272">
<rect width="84" height="84" fill="white" transform="translate(28 28)"/>
</clipPath>
</defs>
</svg>
