<svg width="140" height="140" viewBox="0 0 140 140" fill="none" xmlns="http://www.w3.org/2000/svg">
<path d="M70 140C108.66 140 140 108.66 140 70C140 31.3401 108.66 0 70 0C31.3401 0 0 31.3401 0 70C0 108.66 31.3401 140 70 140Z" fill="#8F2525"/>
<path d="M140 69.9999C140 69.6808 139.992 69.3639 139.988 69.0459L119.082 47.9958L118.98 48.1523L104.673 33.9223L99.3933 42.7631L83.8648 27.2346L77.0833 54.4602L25.1162 96.1848L68.9176 139.986C69.2783 139.992 69.6381 140 69.9999 140C108.66 140 140 108.66 140 69.9999Z" fill="#601A1A"/>
<path d="M71.3631 111.208L54.1642 117.012L42.0635 82.422L59.2627 76.6172L71.3631 111.208Z" fill="#91432C"/>
<path d="M106.929 93.1625C106.929 93.1625 66.4686 82.0147 39.1689 91.5648L31.8777 70.7226C59.1774 61.1725 83.865 27.2343 83.865 27.2343L106.929 93.1625Z" fill="white"/>
<path d="M36.2998 83.3634L39.169 91.5652C66.469 82.0149 106.929 93.1629 106.929 93.1629L95.271 59.8377L36.2998 83.3634Z" fill="#E0E0E0"/>
<path d="M83.8649 27.2343C83.8649 27.2343 80.7756 31.4796 75.5784 37.3873L94.1199 90.389C101.866 91.7688 106.929 93.1625 106.929 93.1625L83.8649 27.2343Z" fill="#C16C6C"/>
<path d="M84.8818 63.9819L94.1199 90.3891C101.866 91.7689 106.929 93.1626 106.929 93.1626L95.2708 59.8374L84.8818 63.9819Z" fill="#91432C"/>
<path d="M25.1163 96.1848L39.1688 91.5651L31.8776 70.7229L17.9172 75.6065L25.1163 96.1848Z" fill="#C16C6C"/>
<path d="M22.5498 88.8488L25.1163 96.1849L39.1688 91.5652L36.2996 83.3634L22.5498 88.8488Z" fill="#91432C"/>
<path d="M101.032 55.65L103.168 60.6846L121.214 53.0297L119.079 47.9952L101.032 55.65Z" fill="white"/>
<path d="M121.218 53.0302L120.018 50.2018L101.917 57.7301L103.171 60.6865L121.218 53.0302Z" fill="#A2A2A2"/>
<path d="M93.334 46.2522L98.3472 48.4376L104.675 33.9213L99.6618 31.736L93.334 46.2522Z" fill="white"/>
<path d="M104.113 74.1608L119.505 77.8787L120.789 72.5634L105.397 68.8454L104.113 74.1608Z" fill="#A2A2A2"/>
</svg>
