<svg width="38" height="38" viewBox="0 0 38 38" fill="none" xmlns="http://www.w3.org/2000/svg">
<path fill-rule="evenodd" clip-rule="evenodd" d="M37.75 19C37.75 29.3553 29.3553 37.75 19 37.75C8.64466 37.75 0.25 29.3553 0.25 19C0.25 8.64466 8.64466 0.25 19 0.25C29.3553 0.25 37.75 8.64466 37.75 19ZM9.95956 28.0404C9.56904 27.6499 9.56904 27.0168 9.95956 26.6262L17.5858 19L9.95956 11.3738C9.56904 10.9832 9.56904 10.3501 9.95956 9.95956C10.3501 9.56904 10.9832 9.56904 11.3738 9.95956L19 17.5858L26.6262 9.95956C27.0168 9.56904 27.6499 9.56904 28.0404 9.95956C28.431 10.3501 28.431 10.9832 28.0404 11.3738L20.4142 19L28.0404 26.6262C28.431 27.0168 28.431 27.6499 28.0404 28.0404C27.6499 28.431 27.0168 28.431 26.6262 28.0404L19 20.4142L11.3738 28.0404C10.9833 28.431 10.3501 28.431 9.95956 28.0404Z" fill="#FF3B3B"/>
</svg>
