<svg width="32" height="32" viewBox="0 0 32 32" fill="none" xmlns="http://www.w3.org/2000/svg">
<path fill-rule="evenodd" clip-rule="evenodd" d="M19.4002 9H12.6002C11.8002 9.1 11.4002 9.2 11.1002 9.3C10.7002 9.4 10.4002 9.6 10.1002 9.9C9.8632 10.1374 9.7502 10.3748 9.6152 10.6617C9.5792 10.7373 9.5422 10.8166 9.5002 10.9C9.4852 10.9464 9.4672 10.9952 9.4482 11.0475C9.3432 11.3333 9.2002 11.7238 9.2002 12.4V19.2C9.3002 20 9.4002 20.4 9.5002 20.7C9.6002 21.1 9.8002 21.4 10.1002 21.7C10.3372 21.9374 10.5752 22.0495 10.8622 22.1851C10.9372 22.2209 11.0172 22.2583 11.1002 22.3C11.1462 22.3155 11.1952 22.3333 11.2482 22.3525C11.5332 22.4571 11.9242 22.6 12.6002 22.6H19.4002C20.2002 22.5 20.6002 22.4 20.9002 22.3C21.3002 22.2 21.6002 22 21.9002 21.7C22.1372 21.4626 22.2502 21.2252 22.3852 20.9383C22.4212 20.8626 22.4582 20.7835 22.5002 20.7C22.5152 20.6536 22.5332 20.6048 22.5522 20.5525C22.6572 20.2667 22.8002 19.8762 22.8002 19.2V12.4C22.7002 11.6 22.6002 11.2 22.5002 10.9C22.4002 10.5 22.2002 10.2 21.9002 9.9C21.6632 9.66261 21.4252 9.55045 21.1382 9.41488C21.0632 9.37918 20.9832 9.34167 20.9002 9.3C20.8542 9.28453 20.8052 9.26666 20.7522 9.24752C20.4672 9.1429 20.0762 9 19.4002 9ZM16.0002 11.5C13.6002 11.5 11.7002 13.4 11.7002 15.8C11.7002 18.2 13.6002 20.1 16.0002 20.1C18.4002 20.1 20.3002 18.2 20.3002 15.8C20.3002 13.4 18.4002 11.5 16.0002 11.5ZM21.4002 11.4C21.4002 11.9523 20.9522 12.4 20.4002 12.4C19.8482 12.4 19.4002 11.9523 19.4002 11.4C19.4002 10.8477 19.8482 10.4 20.4002 10.4C20.9522 10.4 21.4002 10.8477 21.4002 11.4Z" fill="white"/>
<path fill-rule="evenodd" clip-rule="evenodd" d="M0 16C0 7.16344 7.163 0 16 0C24.837 0 32 7.16344 32 16C32 24.8366 24.837 32 16 32C7.163 32 0 24.8366 0 16ZM12.6 7.7H19.4C20.3 7.8 20.9 7.9 21.4 8.1C22 8.4 22.4 8.6 22.9 9.1C23.4 9.6 23.7 10.1 23.9 10.6C24.1 11.1 24.3 11.7 24.3 12.6V19.4C24.2 20.3 24.1 20.9 23.9 21.4C23.6 22 23.4 22.4 22.9 22.9C22.4 23.4 21.9 23.7 21.4 23.9C20.9 24.1 20.3 24.3 19.4 24.3H12.6C11.7 24.2 11.1 24.1 10.6 23.9C10 23.6 9.60001 23.4 9.10001 22.9C8.60001 22.4 8.30001 21.9 8.10001 21.4C7.90001 20.9 7.7 20.3 7.7 19.4V12.6C7.8 11.7 7.90001 11.1 8.10001 10.6C8.40001 10 8.60001 9.6 9.10001 9.1C9.60001 8.6 10.1 8.3 10.6 8.1C11.1 7.9 11.7 7.7 12.6 7.7Z" fill="white"/>
</svg>
