<svg width="60" height="140" viewBox="0 0 60 140" fill="none" xmlns="http://www.w3.org/2000/svg">
<path d="M-10 140C28.6599 140 60 108.66 60 70C60 31.3401 28.6599 0 -10 0C-48.6599 0 -80 31.3401 -80 70C-80 108.66 -48.6599 140 -10 140Z" fill="#8F2525"/>
<path d="M59.9999 70C59.9999 69.6809 59.992 69.364 59.9878 69.0459L39.0816 47.9959L38.9805 48.1523L24.6731 33.9224L19.3933 42.7631L3.8648 27.2346L-2.91672 54.4602L-54.8838 96.1849L-11.0824 139.986C-10.7217 139.992 -10.3619 140 -10.0001 140C28.6598 140 59.9999 108.66 59.9999 70Z" fill="#601A1A"/>
<path d="M26.9286 93.1625C26.9286 93.1625 -13.5314 82.0147 -40.8311 91.5648L-48.1223 70.7226C-20.8226 61.1725 3.86499 27.2343 3.86499 27.2343L26.9286 93.1625Z" fill="white"/>
<path d="M-43.7002 83.3635L-40.831 91.5653C-13.531 82.0149 26.929 93.163 26.929 93.163L15.271 59.8378L-43.7002 83.3635Z" fill="#E0E0E0"/>
<path d="M3.86489 27.2343C3.86489 27.2343 0.775595 31.4796 -4.42163 37.3873L14.1199 90.389C21.8664 91.7688 26.9288 93.1625 26.9288 93.1625L3.86489 27.2343Z" fill="#C16C6C"/>
<path d="M4.88184 63.9819L14.1199 90.3891C21.8664 91.7689 26.9288 93.1626 26.9288 93.1626L15.2708 59.8374L4.88184 63.9819Z" fill="#91432C"/>
<path d="M21.0324 55.65L23.168 60.6846L41.2142 53.0297L39.0787 47.9952L21.0324 55.65Z" fill="white"/>
<path d="M41.2176 53.0302L40.0178 50.2018L21.9167 57.7301L23.1707 60.6865L41.2176 53.0302Z" fill="#A2A2A2"/>
<path d="M13.334 46.2523L18.3472 48.4376L24.6749 33.9214L19.6618 31.7361L13.334 46.2523Z" fill="white"/>
<path d="M24.1135 74.1608L39.5046 77.8788L40.7886 72.5634L25.3975 68.8455L24.1135 74.1608Z" fill="#A2A2A2"/>
</svg>
