<svg width="24" height="12" viewBox="0 0 24 12" fill="none" xmlns="http://www.w3.org/2000/svg">
<path d="M23 5.95075H1C0.447998 5.95075 0 5.78413 0 5.57883C0 5.37353 0.447998 5.20691 1 5.20691H23C23.552 5.20691 24 5.37353 24 5.57883C24 5.78413 23.552 5.95075 23 5.95075Z" fill="black"/>
<path d="M23 11.1577H1C0.447998 11.1577 0 10.991 0 10.7857C0 10.5804 0.447998 10.4138 1 10.4138H23C23.552 10.4138 24 10.5804 24 10.7857C24 10.991 23.552 11.1577 23 11.1577Z" fill="black"/>
<path d="M23 0.743843H1C0.447998 0.743843 0 0.577223 0 0.371922C0 0.16662 0.447998 0 1 0H23C23.552 0 24 0.16662 24 0.371922C24 0.577223 23.552 0.743843 23 0.743843Z" fill="black"/>
</svg>
