<svg width="884" height="224" viewBox="0 0 884 224" fill="none" xmlns="http://www.w3.org/2000/svg">
<path d="M881.566 218.435C882.911 218.122 883.748 216.779 883.435 215.434L878.338 193.519C878.025 192.174 876.681 191.337 875.336 191.65C873.991 191.963 873.155 193.307 873.468 194.652L877.999 214.131L858.519 218.663C857.174 218.975 856.337 220.319 856.65 221.664C856.963 223.009 858.307 223.845 859.651 223.533L881.566 218.435ZM1.10606 6.49783C150.462 0.155906 322.476 23.3897 481.03 63.0774C639.603 102.77 784.501 158.867 879.679 218.122L882.321 213.878C786.544 154.249 641.103 97.9908 482.244 58.227C323.367 18.4584 150.858 -4.86539 0.893944 1.50233L1.10606 6.49783Z" fill="#8F2525"/>
</svg>
