<svg width="215" height="100" viewBox="0 0 215 100" fill="none" xmlns="http://www.w3.org/2000/svg">
<path d="M210.766 99.9721C211.303 100.101 211.843 99.7709 211.972 99.2339L214.079 90.4839C214.208 89.9469 213.877 89.4069 213.34 89.2776C212.803 89.1484 212.263 89.4789 212.134 90.0158L210.262 97.7936L202.484 95.9214C201.947 95.7921 201.407 96.1226 201.278 96.6596C201.148 97.1965 201.479 97.7366 202.016 97.8659L210.766 99.9721ZM1.24983 7.96815C60.4863 -7.30619 110.344 11.7276 146.617 36.5477C182.91 61.3815 205.516 91.9551 210.147 99.5219L211.853 98.4779C207.098 90.7086 184.307 59.9136 147.747 34.8971C111.167 9.86696 60.7176 -9.43126 0.750459 6.03149L1.24983 7.96815Z" fill="#8F2525"/>
</svg>
