<svg width="1440" height="1137" viewBox="0 0 1440 1137" fill="none" xmlns="http://www.w3.org/2000/svg">
<path opacity="0.0344828" d="M-162.87 321.943C794.083 -438.01 1047.16 1406.41 2015.73 735.562" stroke="url(#paint0_linear_118_750)" stroke-opacity="0.2" stroke-width="5"/>
<path opacity="0.0689655" d="M-171.151 332.31C777.275 -406.662 1034.99 1395.53 1995.26 743.617" stroke="url(#paint1_linear_118_750)" stroke-opacity="0.2" stroke-width="5"/>
<path opacity="0.103448" d="M-179.431 342.678C760.467 -375.314 1022.83 1384.65 1974.8 751.672" stroke="url(#paint2_linear_118_750)" stroke-opacity="0.2" stroke-width="5"/>
<path opacity="0.137931" d="M-187.711 353.044C743.658 -343.968 1010.66 1373.76 1954.34 759.725" stroke="url(#paint3_linear_118_750)" stroke-opacity="0.2" stroke-width="5"/>
<path opacity="0.172414" d="M-195.991 363.41C726.851 -312.622 998.5 1362.88 1933.87 767.778" stroke="url(#paint4_linear_118_750)" stroke-opacity="0.2" stroke-width="5"/>
<path opacity="0.206897" d="M-204.271 373.777C710.043 -281.275 986.336 1351.99 1913.41 775.831" stroke="url(#paint5_linear_118_750)" stroke-opacity="0.2" stroke-width="5"/>
<path opacity="0.241379" d="M-212.552 384.144C693.234 -249.927 974.172 1341.11 1892.94 783.885" stroke="url(#paint6_linear_118_750)" stroke-opacity="0.2" stroke-width="5"/>
<path opacity="0.275862" d="M-220.829 394.513C676.429 -218.578 962.01 1330.23 1872.48 791.941" stroke="url(#paint7_linear_118_750)" stroke-opacity="0.2" stroke-width="5"/>
<path opacity="0.310345" d="M-229.109 404.878C659.621 -187.234 949.847 1319.34 1852.02 799.992" stroke="url(#paint8_linear_118_750)" stroke-opacity="0.2" stroke-width="5"/>
<path opacity="0.344828" d="M-237.387 415.246C642.814 -155.885 937.685 1308.46 1831.56 808.048" stroke="url(#paint9_linear_118_750)" stroke-opacity="0.2" stroke-width="5"/>
<path opacity="0.37931" d="M-245.667 425.612C626.006 -124.539 925.521 1297.57 1811.09 816.1" stroke="url(#paint10_linear_118_750)" stroke-opacity="0.2" stroke-width="5"/>
<path opacity="0.413793" d="M-253.95 435.981C609.196 -93.1897 913.355 1286.69 1790.63 824.156" stroke="url(#paint11_linear_118_750)" stroke-opacity="0.2" stroke-width="5"/>
<path opacity="0.448276" d="M-262.228 446.347C592.39 -61.8438 901.193 1275.8 1770.17 832.209" stroke="url(#paint12_linear_118_750)" stroke-opacity="0.2" stroke-width="5"/>
<path opacity="0.482759" d="M-270.507 456.715C575.582 -30.4961 889.03 1264.92 1749.7 840.264" stroke="url(#paint13_linear_118_750)" stroke-opacity="0.2" stroke-width="5"/>
<path opacity="0.517241" d="M-278.789 467.081C558.772 0.850715 876.864 1254.04 1729.24 848.317" stroke="url(#paint14_linear_118_750)" stroke-opacity="0.2" stroke-width="5"/>
<path opacity="0.551724" d="M-287.067 477.449C541.967 32.1991 864.702 1243.15 1708.78 856.372" stroke="url(#paint15_linear_118_750)" stroke-opacity="0.2" stroke-width="5"/>
<path opacity="0.586207" d="M-295.347 487.815C525.158 63.5446 852.538 1232.27 1688.31 864.424" stroke="url(#paint16_linear_118_750)" stroke-opacity="0.2" stroke-width="5"/>
<path opacity="0.62069" d="M-303.622 498.183C508.356 94.8934 840.38 1221.39 1667.85 872.48" stroke="url(#paint17_linear_118_750)" stroke-opacity="0.2" stroke-width="5"/>
<path opacity="0.655172" d="M-311.906 508.551C491.544 126.241 828.213 1210.5 1647.39 880.534" stroke="url(#paint18_linear_118_750)" stroke-opacity="0.2" stroke-width="5"/>
<path opacity="0.689655" d="M-320.185 518.919C474.737 157.589 816.049 1199.62 1626.92 888.589" stroke="url(#paint19_linear_118_750)" stroke-opacity="0.2" stroke-width="5"/>
<path opacity="0.724138" d="M-328.467 529.284C457.926 188.934 803.883 1188.73 1606.46 896.641" stroke="url(#paint20_linear_118_750)" stroke-opacity="0.2" stroke-width="5"/>
<path opacity="0.758621" d="M-336.747 539.65C441.118 220.281 791.72 1177.85 1585.99 904.694" stroke="url(#paint21_linear_118_750)" stroke-opacity="0.2" stroke-width="5"/>
<path opacity="0.793103" d="M-345.023 550.018C424.315 251.629 779.56 1166.96 1565.54 912.749" stroke="url(#paint22_linear_118_750)" stroke-opacity="0.2" stroke-width="5"/>
<path opacity="0.827586" d="M-353.302 560.385C407.507 282.976 767.397 1156.08 1545.07 920.803" stroke="url(#paint23_linear_118_750)" stroke-opacity="0.2" stroke-width="5"/>
<path opacity="0.862069" d="M-361.586 570.753C390.696 314.324 755.23 1145.2 1524.61 928.857" stroke="url(#paint24_linear_118_750)" stroke-opacity="0.2" stroke-width="5"/>
<path opacity="0.896552" d="M-369.864 581.121C373.89 345.672 743.068 1134.31 1504.14 936.912" stroke="url(#paint25_linear_118_750)" stroke-opacity="0.2" stroke-width="5"/>
<path opacity="0.931035" d="M-378.142 591.487C357.083 377.019 730.906 1123.43 1483.68 944.965" stroke="url(#paint26_linear_118_750)" stroke-opacity="0.2" stroke-width="5"/>
<path opacity="0.965517" d="M-386.42 601.853C340.277 408.365 718.744 1112.54 1463.22 953.018" stroke="url(#paint27_linear_118_750)" stroke-opacity="0.2" stroke-width="5"/>
<path d="M-394.703 612.22C323.467 439.712 706.578 1101.66 1442.75 961.072" stroke="url(#paint28_linear_118_750)" stroke-opacity="0.2" stroke-width="5"/>
<defs>
<linearGradient id="paint0_linear_118_750" x1="-98.6206" y1="315.147" x2="2019.11" y2="717.212" gradientUnits="userSpaceOnUse">
<stop stop-color="#822222" stop-opacity="0.5"/>
<stop offset="1" stop-color="#B63030" stop-opacity="0.5"/>
</linearGradient>
<linearGradient id="paint1_linear_118_750" x1="-107.324" y1="325.89" x2="1998.57" y2="725.706" gradientUnits="userSpaceOnUse">
<stop stop-color="#822222" stop-opacity="0.5"/>
<stop offset="1" stop-color="#B63030" stop-opacity="0.5"/>
</linearGradient>
<linearGradient id="paint2_linear_118_750" x1="-116.028" y1="336.634" x2="1978.02" y2="734.201" gradientUnits="userSpaceOnUse">
<stop stop-color="#822222" stop-opacity="0.5"/>
<stop offset="1" stop-color="#B63030" stop-opacity="0.5"/>
</linearGradient>
<linearGradient id="paint3_linear_118_750" x1="-124.732" y1="347.375" x2="1957.47" y2="742.694" gradientUnits="userSpaceOnUse">
<stop stop-color="#822222" stop-opacity="0.5"/>
<stop offset="1" stop-color="#B63030" stop-opacity="0.5"/>
</linearGradient>
<linearGradient id="paint4_linear_118_750" x1="-133.435" y1="358.117" x2="1936.93" y2="751.187" gradientUnits="userSpaceOnUse">
<stop stop-color="#822222" stop-opacity="0.5"/>
<stop offset="1" stop-color="#B63030" stop-opacity="0.5"/>
</linearGradient>
<linearGradient id="paint5_linear_118_750" x1="-142.138" y1="368.859" x2="1916.38" y2="759.681" gradientUnits="userSpaceOnUse">
<stop stop-color="#822222" stop-opacity="0.5"/>
<stop offset="1" stop-color="#B63030" stop-opacity="0.5"/>
</linearGradient>
<linearGradient id="paint6_linear_118_750" x1="-150.842" y1="379.602" x2="1895.83" y2="768.175" gradientUnits="userSpaceOnUse">
<stop stop-color="#822222" stop-opacity="0.5"/>
<stop offset="1" stop-color="#B63030" stop-opacity="0.5"/>
</linearGradient>
<linearGradient id="paint7_linear_118_750" x1="-159.543" y1="390.346" x2="1875.29" y2="776.671" gradientUnits="userSpaceOnUse">
<stop stop-color="#822222" stop-opacity="0.5"/>
<stop offset="1" stop-color="#B63030" stop-opacity="0.5"/>
</linearGradient>
<linearGradient id="paint8_linear_118_750" x1="-168.246" y1="401.086" x2="1854.74" y2="785.162" gradientUnits="userSpaceOnUse">
<stop stop-color="#822222" stop-opacity="0.5"/>
<stop offset="1" stop-color="#B63030" stop-opacity="0.5"/>
</linearGradient>
<linearGradient id="paint9_linear_118_750" x1="-176.948" y1="411.83" x2="1834.2" y2="793.658" gradientUnits="userSpaceOnUse">
<stop stop-color="#822222" stop-opacity="0.5"/>
<stop offset="1" stop-color="#B63030" stop-opacity="0.5"/>
</linearGradient>
<linearGradient id="paint10_linear_118_750" x1="-185.651" y1="422.571" x2="1813.65" y2="802.151" gradientUnits="userSpaceOnUse">
<stop stop-color="#822222" stop-opacity="0.5"/>
<stop offset="1" stop-color="#B63030" stop-opacity="0.5"/>
</linearGradient>
<linearGradient id="paint11_linear_118_750" x1="-194.357" y1="433.316" x2="1793.1" y2="810.647" gradientUnits="userSpaceOnUse">
<stop stop-color="#822222" stop-opacity="0.5"/>
<stop offset="1" stop-color="#B63030" stop-opacity="0.5"/>
</linearGradient>
<linearGradient id="paint12_linear_118_750" x1="-203.059" y1="444.057" x2="1772.56" y2="819.139" gradientUnits="userSpaceOnUse">
<stop stop-color="#822222" stop-opacity="0.5"/>
<stop offset="1" stop-color="#B63030" stop-opacity="0.5"/>
</linearGradient>
<linearGradient id="paint13_linear_118_750" x1="-211.761" y1="454.8" x2="1752.01" y2="827.634" gradientUnits="userSpaceOnUse">
<stop stop-color="#822222" stop-opacity="0.5"/>
<stop offset="1" stop-color="#B63030" stop-opacity="0.5"/>
</linearGradient>
<linearGradient id="paint14_linear_118_750" x1="-220.467" y1="465.542" x2="1731.46" y2="836.128" gradientUnits="userSpaceOnUse">
<stop stop-color="#822222" stop-opacity="0.5"/>
<stop offset="1" stop-color="#B63030" stop-opacity="0.5"/>
</linearGradient>
<linearGradient id="paint15_linear_118_750" x1="-229.168" y1="476.286" x2="1710.92" y2="844.623" gradientUnits="userSpaceOnUse">
<stop stop-color="#822222" stop-opacity="0.5"/>
<stop offset="1" stop-color="#B63030" stop-opacity="0.5"/>
</linearGradient>
<linearGradient id="paint16_linear_118_750" x1="-237.871" y1="487.027" x2="1690.37" y2="853.115" gradientUnits="userSpaceOnUse">
<stop stop-color="#822222" stop-opacity="0.5"/>
<stop offset="1" stop-color="#B63030" stop-opacity="0.5"/>
</linearGradient>
<linearGradient id="paint17_linear_118_750" x1="-246.57" y1="497.771" x2="1669.83" y2="861.611" gradientUnits="userSpaceOnUse">
<stop stop-color="#822222" stop-opacity="0.5"/>
<stop offset="1" stop-color="#B63030" stop-opacity="0.5"/>
</linearGradient>
<linearGradient id="paint18_linear_118_750" x1="-255.277" y1="508.514" x2="1649.28" y2="870.105" gradientUnits="userSpaceOnUse">
<stop stop-color="#822222" stop-opacity="0.5"/>
<stop offset="1" stop-color="#B63030" stop-opacity="0.5"/>
</linearGradient>
<linearGradient id="paint19_linear_118_750" x1="-263.979" y1="519.257" x2="1628.73" y2="878.6" gradientUnits="userSpaceOnUse">
<stop stop-color="#822222" stop-opacity="0.5"/>
<stop offset="1" stop-color="#B63030" stop-opacity="0.5"/>
</linearGradient>
<linearGradient id="paint20_linear_118_750" x1="-272.685" y1="529.998" x2="1608.18" y2="887.092" gradientUnits="userSpaceOnUse">
<stop stop-color="#822222" stop-opacity="0.5"/>
<stop offset="1" stop-color="#B63030" stop-opacity="0.5"/>
</linearGradient>
<linearGradient id="paint21_linear_118_750" x1="-281.388" y1="540.739" x2="1587.64" y2="895.585" gradientUnits="userSpaceOnUse">
<stop stop-color="#822222" stop-opacity="0.5"/>
<stop offset="1" stop-color="#B63030" stop-opacity="0.5"/>
</linearGradient>
<linearGradient id="paint22_linear_118_750" x1="-290.087" y1="551.483" x2="1567.1" y2="904.08" gradientUnits="userSpaceOnUse">
<stop stop-color="#822222" stop-opacity="0.5"/>
<stop offset="1" stop-color="#B63030" stop-opacity="0.5"/>
</linearGradient>
<linearGradient id="paint23_linear_118_750" x1="-298.79" y1="562.225" x2="1546.55" y2="912.574" gradientUnits="userSpaceOnUse">
<stop stop-color="#822222" stop-opacity="0.5"/>
<stop offset="1" stop-color="#B63030" stop-opacity="0.5"/>
</linearGradient>
<linearGradient id="paint24_linear_118_750" x1="-307.497" y1="572.968" x2="1526" y2="921.069" gradientUnits="userSpaceOnUse">
<stop stop-color="#822222" stop-opacity="0.5"/>
<stop offset="1" stop-color="#B63030" stop-opacity="0.5"/>
</linearGradient>
<linearGradient id="paint25_linear_118_750" x1="-316.198" y1="583.712" x2="1505.45" y2="929.564" gradientUnits="userSpaceOnUse">
<stop stop-color="#822222" stop-opacity="0.5"/>
<stop offset="1" stop-color="#B63030" stop-opacity="0.5"/>
</linearGradient>
<linearGradient id="paint26_linear_118_750" x1="-324.9" y1="594.454" x2="1484.91" y2="938.057" gradientUnits="userSpaceOnUse">
<stop stop-color="#822222" stop-opacity="0.5"/>
<stop offset="1" stop-color="#B63030" stop-opacity="0.5"/>
</linearGradient>
<linearGradient id="paint27_linear_118_750" x1="-333.601" y1="605.195" x2="1464.37" y2="946.55" gradientUnits="userSpaceOnUse">
<stop stop-color="#822222" stop-opacity="0.5"/>
<stop offset="1" stop-color="#B63030" stop-opacity="0.5"/>
</linearGradient>
<linearGradient id="paint28_linear_118_750" x1="-342.307" y1="615.938" x2="1443.82" y2="955.044" gradientUnits="userSpaceOnUse">
<stop stop-color="#822222" stop-opacity="0.5"/>
<stop offset="1" stop-color="#B63030" stop-opacity="0.5"/>
</linearGradient>
</defs>
</svg>
