<svg width="375" height="638" viewBox="0 0 375 638" fill="none" xmlns="http://www.w3.org/2000/svg">
<path opacity="0.0344828" d="M-129.115 235.364C306.582 -450.824 472.021 941.043 915.422 322.158" stroke="url(#paint0_linear_119_4)" stroke-opacity="0.2" stroke-width="5"/>
<path opacity="0.0689655" d="M-132.792 244.218C299.372 -424.927 465.979 933.963 905.904 330.527" stroke="url(#paint1_linear_119_4)" stroke-opacity="0.2" stroke-width="5"/>
<path opacity="0.103448" d="M-136.469 253.072C292.161 -399.029 459.936 926.883 896.386 338.896" stroke="url(#paint2_linear_119_4)" stroke-opacity="0.2" stroke-width="5"/>
<path opacity="0.137931" d="M-140.145 261.926C284.95 -373.131 453.893 919.802 886.867 347.264" stroke="url(#paint3_linear_119_4)" stroke-opacity="0.2" stroke-width="5"/>
<path opacity="0.172414" d="M-143.822 270.779C277.739 -347.234 447.851 912.721 877.349 355.631" stroke="url(#paint4_linear_119_4)" stroke-opacity="0.2" stroke-width="5"/>
<path opacity="0.206897" d="M-147.499 279.632C270.529 -321.337 441.809 905.641 867.831 364" stroke="url(#paint5_linear_119_4)" stroke-opacity="0.2" stroke-width="5"/>
<path opacity="0.241379" d="M-151.176 288.485C263.317 -295.44 435.766 898.56 858.312 372.367" stroke="url(#paint6_linear_119_4)" stroke-opacity="0.2" stroke-width="5"/>
<path opacity="0.275862" d="M-154.851 297.341C256.108 -269.541 429.725 891.481 848.795 380.738" stroke="url(#paint7_linear_119_4)" stroke-opacity="0.2" stroke-width="5"/>
<path opacity="0.310345" d="M-158.528 306.192C248.897 -243.646 423.682 884.399 839.277 389.103" stroke="url(#paint8_linear_119_4)" stroke-opacity="0.2" stroke-width="5"/>
<path opacity="0.344828" d="M-162.204 315.047C241.687 -217.747 417.64 877.319 829.76 397.473" stroke="url(#paint9_linear_119_4)" stroke-opacity="0.2" stroke-width="5"/>
<path opacity="0.37931" d="M-165.881 323.9C234.477 -191.851 411.598 870.238 820.241 405.84" stroke="url(#paint10_linear_119_4)" stroke-opacity="0.2" stroke-width="5"/>
<path opacity="0.413793" d="M-169.559 332.756C227.265 -165.951 405.554 863.16 810.722 414.211" stroke="url(#paint11_linear_119_4)" stroke-opacity="0.2" stroke-width="5"/>
<path opacity="0.448276" d="M-173.235 341.608C220.055 -140.055 399.513 856.078 801.205 422.578" stroke="url(#paint12_linear_119_4)" stroke-opacity="0.2" stroke-width="5"/>
<path opacity="0.482759" d="M-176.911 350.462C212.845 -114.157 393.471 848.999 791.687 430.947" stroke="url(#paint13_linear_119_4)" stroke-opacity="0.2" stroke-width="5"/>
<path opacity="0.517241" d="M-180.589 359.316C205.632 -88.2596 387.427 841.918 782.167 439.315" stroke="url(#paint14_linear_119_4)" stroke-opacity="0.2" stroke-width="5"/>
<path opacity="0.551724" d="M-184.265 368.17C198.423 -62.3616 381.385 834.838 772.65 447.684" stroke="url(#paint15_linear_119_4)" stroke-opacity="0.2" stroke-width="5"/>
<path opacity="0.586207" d="M-187.942 377.022C191.212 -36.4657 375.343 827.756 763.132 456.051" stroke="url(#paint16_linear_119_4)" stroke-opacity="0.2" stroke-width="5"/>
<path opacity="0.62069" d="M-191.616 385.877C184.004 -10.5674 369.303 820.677 753.616 464.42" stroke="url(#paint17_linear_119_4)" stroke-opacity="0.2" stroke-width="5"/>
<path opacity="0.655172" d="M-195.294 394.732C176.792 15.331 363.259 813.598 744.096 472.789" stroke="url(#paint18_linear_119_4)" stroke-opacity="0.2" stroke-width="5"/>
<path opacity="0.689655" d="M-198.971 403.586C169.581 41.229 357.217 806.518 734.578 481.158" stroke="url(#paint19_linear_119_4)" stroke-opacity="0.2" stroke-width="5"/>
<path opacity="0.724138" d="M-202.649 412.438C162.369 67.1251 351.173 799.436 725.059 489.525" stroke="url(#paint20_linear_119_4)" stroke-opacity="0.2" stroke-width="5"/>
<path opacity="0.758621" d="M-206.325 421.291C155.159 93.0219 345.131 792.355 715.54 497.892" stroke="url(#paint21_linear_119_4)" stroke-opacity="0.2" stroke-width="5"/>
<path opacity="0.793103" d="M-210 430.145C147.95 118.919 339.09 785.275 706.024 506.261" stroke="url(#paint22_linear_119_4)" stroke-opacity="0.2" stroke-width="5"/>
<path opacity="0.827586" d="M-213.677 438.999C140.739 144.817 333.048 778.195 696.506 514.629" stroke="url(#paint23_linear_119_4)" stroke-opacity="0.2" stroke-width="5"/>
<path opacity="0.862069" d="M-217.355 447.854C133.527 170.715 327.004 771.115 686.986 522.999" stroke="url(#paint24_linear_119_4)" stroke-opacity="0.2" stroke-width="5"/>
<path opacity="0.896552" d="M-221.031 456.708C126.317 196.614 320.962 764.036 677.469 531.368" stroke="url(#paint25_linear_119_4)" stroke-opacity="0.2" stroke-width="5"/>
<path opacity="0.931035" d="M-224.707 465.561C119.107 222.51 314.921 756.955 667.952 539.735" stroke="url(#paint26_linear_119_4)" stroke-opacity="0.2" stroke-width="5"/>
<path opacity="0.965517" d="M-228.383 474.414C111.898 248.407 308.879 749.874 658.434 548.103" stroke="url(#paint27_linear_119_4)" stroke-opacity="0.2" stroke-width="5"/>
<path d="M-232.061 483.267C104.686 274.304 302.835 742.793 648.915 556.471" stroke="url(#paint28_linear_119_4)" stroke-opacity="0.2" stroke-width="5"/>
<defs>
<linearGradient id="paint0_linear_119_4" x1="-98.7764" y1="223.314" x2="916.58" y2="307.683" gradientUnits="userSpaceOnUse">
<stop stop-color="#822222" stop-opacity="0.5"/>
<stop offset="1" stop-color="#B63030" stop-opacity="0.5"/>
</linearGradient>
<linearGradient id="paint1_linear_119_4" x1="-102.645" y1="232.501" x2="907.033" y2="316.399" gradientUnits="userSpaceOnUse">
<stop stop-color="#822222" stop-opacity="0.5"/>
<stop offset="1" stop-color="#B63030" stop-opacity="0.5"/>
</linearGradient>
<linearGradient id="paint2_linear_119_4" x1="-106.514" y1="241.689" x2="897.486" y2="325.115" gradientUnits="userSpaceOnUse">
<stop stop-color="#822222" stop-opacity="0.5"/>
<stop offset="1" stop-color="#B63030" stop-opacity="0.5"/>
</linearGradient>
<linearGradient id="paint3_linear_119_4" x1="-110.382" y1="250.876" x2="887.939" y2="333.831" gradientUnits="userSpaceOnUse">
<stop stop-color="#822222" stop-opacity="0.5"/>
<stop offset="1" stop-color="#B63030" stop-opacity="0.5"/>
</linearGradient>
<linearGradient id="paint4_linear_119_4" x1="-114.251" y1="260.063" x2="878.392" y2="342.546" gradientUnits="userSpaceOnUse">
<stop stop-color="#822222" stop-opacity="0.5"/>
<stop offset="1" stop-color="#B63030" stop-opacity="0.5"/>
</linearGradient>
<linearGradient id="paint5_linear_119_4" x1="-118.119" y1="269.251" x2="868.845" y2="351.261" gradientUnits="userSpaceOnUse">
<stop stop-color="#822222" stop-opacity="0.5"/>
<stop offset="1" stop-color="#B63030" stop-opacity="0.5"/>
</linearGradient>
<linearGradient id="paint6_linear_119_4" x1="-121.988" y1="278.438" x2="859.298" y2="359.976" gradientUnits="userSpaceOnUse">
<stop stop-color="#822222" stop-opacity="0.5"/>
<stop offset="1" stop-color="#B63030" stop-opacity="0.5"/>
</linearGradient>
<linearGradient id="paint7_linear_119_4" x1="-125.856" y1="287.627" x2="849.752" y2="368.694" gradientUnits="userSpaceOnUse">
<stop stop-color="#822222" stop-opacity="0.5"/>
<stop offset="1" stop-color="#B63030" stop-opacity="0.5"/>
</linearGradient>
<linearGradient id="paint8_linear_119_4" x1="-129.724" y1="296.812" x2="840.206" y2="377.407" gradientUnits="userSpaceOnUse">
<stop stop-color="#822222" stop-opacity="0.5"/>
<stop offset="1" stop-color="#B63030" stop-opacity="0.5"/>
</linearGradient>
<linearGradient id="paint9_linear_119_4" x1="-133.592" y1="306.001" x2="830.659" y2="386.124" gradientUnits="userSpaceOnUse">
<stop stop-color="#822222" stop-opacity="0.5"/>
<stop offset="1" stop-color="#B63030" stop-opacity="0.5"/>
</linearGradient>
<linearGradient id="paint10_linear_119_4" x1="-137.461" y1="315.187" x2="821.113" y2="394.839" gradientUnits="userSpaceOnUse">
<stop stop-color="#822222" stop-opacity="0.5"/>
<stop offset="1" stop-color="#B63030" stop-opacity="0.5"/>
</linearGradient>
<linearGradient id="paint11_linear_119_4" x1="-141.33" y1="324.377" x2="811.565" y2="403.556" gradientUnits="userSpaceOnUse">
<stop stop-color="#822222" stop-opacity="0.5"/>
<stop offset="1" stop-color="#B63030" stop-opacity="0.5"/>
</linearGradient>
<linearGradient id="paint12_linear_119_4" x1="-145.198" y1="333.563" x2="802.019" y2="412.271" gradientUnits="userSpaceOnUse">
<stop stop-color="#822222" stop-opacity="0.5"/>
<stop offset="1" stop-color="#B63030" stop-opacity="0.5"/>
</linearGradient>
<linearGradient id="paint13_linear_119_4" x1="-149.066" y1="342.751" x2="792.472" y2="420.987" gradientUnits="userSpaceOnUse">
<stop stop-color="#822222" stop-opacity="0.5"/>
<stop offset="1" stop-color="#B63030" stop-opacity="0.5"/>
</linearGradient>
<linearGradient id="paint14_linear_119_4" x1="-152.936" y1="351.939" x2="782.924" y2="429.702" gradientUnits="userSpaceOnUse">
<stop stop-color="#822222" stop-opacity="0.5"/>
<stop offset="1" stop-color="#B63030" stop-opacity="0.5"/>
</linearGradient>
<linearGradient id="paint15_linear_119_4" x1="-156.803" y1="361.127" x2="773.378" y2="438.419" gradientUnits="userSpaceOnUse">
<stop stop-color="#822222" stop-opacity="0.5"/>
<stop offset="1" stop-color="#B63030" stop-opacity="0.5"/>
</linearGradient>
<linearGradient id="paint16_linear_119_4" x1="-160.672" y1="370.312" x2="763.831" y2="447.133" gradientUnits="userSpaceOnUse">
<stop stop-color="#822222" stop-opacity="0.5"/>
<stop offset="1" stop-color="#B63030" stop-opacity="0.5"/>
</linearGradient>
<linearGradient id="paint17_linear_119_4" x1="-164.538" y1="379.501" x2="754.287" y2="455.849" gradientUnits="userSpaceOnUse">
<stop stop-color="#822222" stop-opacity="0.5"/>
<stop offset="1" stop-color="#B63030" stop-opacity="0.5"/>
</linearGradient>
<linearGradient id="paint18_linear_119_4" x1="-168.408" y1="388.689" x2="744.738" y2="464.566" gradientUnits="userSpaceOnUse">
<stop stop-color="#822222" stop-opacity="0.5"/>
<stop offset="1" stop-color="#B63030" stop-opacity="0.5"/>
</linearGradient>
<linearGradient id="paint19_linear_119_4" x1="-172.276" y1="397.877" x2="735.192" y2="473.282" gradientUnits="userSpaceOnUse">
<stop stop-color="#822222" stop-opacity="0.5"/>
<stop offset="1" stop-color="#B63030" stop-opacity="0.5"/>
</linearGradient>
<linearGradient id="paint20_linear_119_4" x1="-176.146" y1="407.063" x2="725.644" y2="481.996" gradientUnits="userSpaceOnUse">
<stop stop-color="#822222" stop-opacity="0.5"/>
<stop offset="1" stop-color="#B63030" stop-opacity="0.5"/>
</linearGradient>
<linearGradient id="paint21_linear_119_4" x1="-180.015" y1="416.25" x2="716.097" y2="490.711" gradientUnits="userSpaceOnUse">
<stop stop-color="#822222" stop-opacity="0.5"/>
<stop offset="1" stop-color="#B63030" stop-opacity="0.5"/>
</linearGradient>
<linearGradient id="paint22_linear_119_4" x1="-183.881" y1="425.438" x2="706.552" y2="499.427" gradientUnits="userSpaceOnUse">
<stop stop-color="#822222" stop-opacity="0.5"/>
<stop offset="1" stop-color="#B63030" stop-opacity="0.5"/>
</linearGradient>
<linearGradient id="paint23_linear_119_4" x1="-187.75" y1="434.625" x2="697.006" y2="508.143" gradientUnits="userSpaceOnUse">
<stop stop-color="#822222" stop-opacity="0.5"/>
<stop offset="1" stop-color="#B63030" stop-opacity="0.5"/>
</linearGradient>
<linearGradient id="paint24_linear_119_4" x1="-191.62" y1="443.814" x2="687.457" y2="516.859" gradientUnits="userSpaceOnUse">
<stop stop-color="#822222" stop-opacity="0.5"/>
<stop offset="1" stop-color="#B63030" stop-opacity="0.5"/>
</linearGradient>
<linearGradient id="paint25_linear_119_4" x1="-195.487" y1="453.002" x2="677.911" y2="525.576" gradientUnits="userSpaceOnUse">
<stop stop-color="#822222" stop-opacity="0.5"/>
<stop offset="1" stop-color="#B63030" stop-opacity="0.5"/>
</linearGradient>
<linearGradient id="paint26_linear_119_4" x1="-199.355" y1="462.189" x2="668.365" y2="534.291" gradientUnits="userSpaceOnUse">
<stop stop-color="#822222" stop-opacity="0.5"/>
<stop offset="1" stop-color="#B63030" stop-opacity="0.5"/>
</linearGradient>
<linearGradient id="paint27_linear_119_4" x1="-203.223" y1="471.376" x2="658.819" y2="543.006" gradientUnits="userSpaceOnUse">
<stop stop-color="#822222" stop-opacity="0.5"/>
<stop offset="1" stop-color="#B63030" stop-opacity="0.5"/>
</linearGradient>
<linearGradient id="paint28_linear_119_4" x1="-207.092" y1="480.563" x2="649.271" y2="551.721" gradientUnits="userSpaceOnUse">
<stop stop-color="#822222" stop-opacity="0.5"/>
<stop offset="1" stop-color="#B63030" stop-opacity="0.5"/>
</linearGradient>
</defs>
</svg>
