<svg width="375" height="289" viewBox="0 0 375 289" fill="none" xmlns="http://www.w3.org/2000/svg">
<path opacity="0.0344828" d="M-229 168.452C92.9061 546.309 331.857 -174.536 665.066 168.452" stroke="url(#paint0_linear_12:195)" stroke-width="5"/>
<path opacity="0.0689655" d="M-231.5 163.661C88.6059 532.449 326.221 -171.095 657.566 163.661" stroke="url(#paint1_linear_12:195)" stroke-width="5"/>
<path opacity="0.103448" d="M-234 158.87C84.3056 518.59 320.584 -167.654 650.066 158.87" stroke="url(#paint2_linear_12:195)" stroke-width="5"/>
<path opacity="0.137931" d="M-236.5 154.079C80.0054 504.73 314.947 -164.213 642.566 154.079" stroke="url(#paint3_linear_12:195)" stroke-width="5"/>
<path opacity="0.172414" d="M-239 149.288C75.7052 490.871 309.311 -160.773 635.066 149.288" stroke="url(#paint4_linear_12:195)" stroke-width="5"/>
<path opacity="0.206897" d="M-241.5 144.497C71.4049 477.012 303.674 -157.332 627.566 144.497" stroke="url(#paint5_linear_12:195)" stroke-width="5"/>
<path opacity="0.241379" d="M-244 139.707C67.1047 463.152 298.038 -153.891 620.066 139.707" stroke="url(#paint6_linear_12:195)" stroke-width="5"/>
<path opacity="0.275862" d="M-246.5 134.916C62.8044 449.293 292.401 -150.45 612.566 134.916" stroke="url(#paint7_linear_12:195)" stroke-width="5"/>
<path opacity="0.310345" d="M-249 130.125C58.5042 435.433 286.765 -147.009 605.066 130.125" stroke="url(#paint8_linear_12:195)" stroke-width="5"/>
<path opacity="0.344828" d="M-251.5 125.334C54.204 421.574 281.128 -143.568 597.566 125.334" stroke="url(#paint9_linear_12:195)" stroke-width="5"/>
<path opacity="0.37931" d="M-254 120.543C49.9037 407.715 275.492 -140.127 590.066 120.543" stroke="url(#paint10_linear_12:195)" stroke-width="5"/>
<path opacity="0.413793" d="M-256.5 115.752C45.6035 393.855 269.855 -136.687 582.566 115.752" stroke="url(#paint11_linear_12:195)" stroke-width="5"/>
<path opacity="0.448276" d="M-259 110.962C41.3033 379.996 264.219 -133.246 575.066 110.962" stroke="url(#paint12_linear_12:195)" stroke-width="5"/>
<path opacity="0.482759" d="M-261.5 106.171C37.003 366.136 258.582 -129.805 567.566 106.171" stroke="url(#paint13_linear_12:195)" stroke-width="5"/>
<path opacity="0.517241" d="M-264 101.38C32.7028 352.277 252.945 -126.364 560.066 101.38" stroke="url(#paint14_linear_12:195)" stroke-width="5"/>
<path opacity="0.551724" d="M-266.5 96.5891C28.4025 338.418 247.309 -122.923 552.566 96.5891" stroke="url(#paint15_linear_12:195)" stroke-width="5"/>
<path opacity="0.586207" d="M-269 91.7982C24.1023 324.558 241.672 -119.482 545.066 91.7982" stroke="url(#paint16_linear_12:195)" stroke-width="5"/>
<path opacity="0.62069" d="M-271.5 87.0074C19.8021 310.699 236.036 -116.041 537.566 87.0074" stroke="url(#paint17_linear_12:195)" stroke-width="5"/>
<path opacity="0.655172" d="M-274 82.2166C15.5018 296.839 230.399 -112.601 530.066 82.2166" stroke="url(#paint18_linear_12:195)" stroke-width="5"/>
<path opacity="0.689655" d="M-276.5 77.4257C11.2016 282.98 224.763 -109.16 522.566 77.4257" stroke="url(#paint19_linear_12:195)" stroke-width="5"/>
<path opacity="0.724138" d="M-279 72.6349C6.90137 269.121 219.126 -105.719 515.066 72.6349" stroke="url(#paint20_linear_12:195)" stroke-width="5"/>
<path opacity="0.758621" d="M-281.5 67.8441C2.60112 255.261 213.49 -102.278 507.566 67.8441" stroke="url(#paint21_linear_12:195)" stroke-width="5"/>
<path opacity="0.793103" d="M-284 63.0532C-1.6991 241.402 207.853 -98.8371 500.066 63.0532" stroke="url(#paint22_linear_12:195)" stroke-width="5"/>
<path opacity="0.827586" d="M-286.5 58.2624C-5.99935 227.542 202.216 -95.3962 492.566 58.2624" stroke="url(#paint23_linear_12:195)" stroke-width="5"/>
<path opacity="0.862069" d="M-289 53.4715C-10.2996 213.683 196.58 -91.9553 485.066 53.4715" stroke="url(#paint24_linear_12:195)" stroke-width="5"/>
<path opacity="0.896552" d="M-291.5 48.6807C-14.5998 199.824 190.943 -88.5145 477.566 48.6807" stroke="url(#paint25_linear_12:195)" stroke-width="5"/>
<path opacity="0.931035" d="M-294 43.8899C-18.9 185.964 185.307 -85.0736 470.066 43.8899" stroke="url(#paint26_linear_12:195)" stroke-width="5"/>
<path opacity="0.965517" d="M-296.5 39.099C-23.2003 172.105 179.67 -81.6327 462.566 39.099" stroke="url(#paint27_linear_12:195)" stroke-width="5"/>
<path d="M-299 34.3082C-27.5005 158.245 174.034 -78.1919 455.066 34.3082" stroke="url(#paint28_linear_12:195)" stroke-width="5"/>
<defs>
<linearGradient id="paint0_linear_12:195" x1="-204.061" y1="176.073" x2="665.028" y2="176.073" gradientUnits="userSpaceOnUse">
<stop stop-color="#753636"/>
<stop offset="1" stop-color="#C16C6C" stop-opacity="0.2"/>
</linearGradient>
<linearGradient id="paint1_linear_12:195" x1="-206.701" y1="171.1" x2="657.528" y2="171.1" gradientUnits="userSpaceOnUse">
<stop stop-color="#753636"/>
<stop offset="1" stop-color="#C16C6C" stop-opacity="0.2"/>
</linearGradient>
<linearGradient id="paint2_linear_12:195" x1="-209.34" y1="166.126" x2="650.028" y2="166.126" gradientUnits="userSpaceOnUse">
<stop stop-color="#753636"/>
<stop offset="1" stop-color="#C16C6C" stop-opacity="0.2"/>
</linearGradient>
<linearGradient id="paint3_linear_12:195" x1="-211.98" y1="161.152" x2="642.528" y2="161.152" gradientUnits="userSpaceOnUse">
<stop stop-color="#753636"/>
<stop offset="1" stop-color="#C16C6C" stop-opacity="0.2"/>
</linearGradient>
<linearGradient id="paint4_linear_12:195" x1="-214.619" y1="156.178" x2="635.029" y2="156.178" gradientUnits="userSpaceOnUse">
<stop stop-color="#753636"/>
<stop offset="1" stop-color="#C16C6C" stop-opacity="0.2"/>
</linearGradient>
<linearGradient id="paint5_linear_12:195" x1="-217.259" y1="151.205" x2="627.529" y2="151.205" gradientUnits="userSpaceOnUse">
<stop stop-color="#753636"/>
<stop offset="1" stop-color="#C16C6C" stop-opacity="0.2"/>
</linearGradient>
<linearGradient id="paint6_linear_12:195" x1="-219.898" y1="146.231" x2="620.029" y2="146.231" gradientUnits="userSpaceOnUse">
<stop stop-color="#753636"/>
<stop offset="1" stop-color="#C16C6C" stop-opacity="0.2"/>
</linearGradient>
<linearGradient id="paint7_linear_12:195" x1="-222.537" y1="141.257" x2="612.529" y2="141.257" gradientUnits="userSpaceOnUse">
<stop stop-color="#753636"/>
<stop offset="1" stop-color="#C16C6C" stop-opacity="0.2"/>
</linearGradient>
<linearGradient id="paint8_linear_12:195" x1="-225.177" y1="136.283" x2="605.029" y2="136.283" gradientUnits="userSpaceOnUse">
<stop stop-color="#753636"/>
<stop offset="1" stop-color="#C16C6C" stop-opacity="0.2"/>
</linearGradient>
<linearGradient id="paint9_linear_12:195" x1="-227.816" y1="131.31" x2="597.53" y2="131.31" gradientUnits="userSpaceOnUse">
<stop stop-color="#753636"/>
<stop offset="1" stop-color="#C16C6C" stop-opacity="0.2"/>
</linearGradient>
<linearGradient id="paint10_linear_12:195" x1="-230.456" y1="126.336" x2="590.03" y2="126.336" gradientUnits="userSpaceOnUse">
<stop stop-color="#753636"/>
<stop offset="1" stop-color="#C16C6C" stop-opacity="0.2"/>
</linearGradient>
<linearGradient id="paint11_linear_12:195" x1="-233.095" y1="121.362" x2="582.53" y2="121.362" gradientUnits="userSpaceOnUse">
<stop stop-color="#753636"/>
<stop offset="1" stop-color="#C16C6C" stop-opacity="0.2"/>
</linearGradient>
<linearGradient id="paint12_linear_12:195" x1="-235.735" y1="116.388" x2="575.03" y2="116.388" gradientUnits="userSpaceOnUse">
<stop stop-color="#753636"/>
<stop offset="1" stop-color="#C16C6C" stop-opacity="0.2"/>
</linearGradient>
<linearGradient id="paint13_linear_12:195" x1="-238.374" y1="111.415" x2="567.53" y2="111.415" gradientUnits="userSpaceOnUse">
<stop stop-color="#753636"/>
<stop offset="1" stop-color="#C16C6C" stop-opacity="0.2"/>
</linearGradient>
<linearGradient id="paint14_linear_12:195" x1="-241.014" y1="106.441" x2="560.031" y2="106.441" gradientUnits="userSpaceOnUse">
<stop stop-color="#753636"/>
<stop offset="1" stop-color="#C16C6C" stop-opacity="0.2"/>
</linearGradient>
<linearGradient id="paint15_linear_12:195" x1="-243.653" y1="101.467" x2="552.531" y2="101.467" gradientUnits="userSpaceOnUse">
<stop stop-color="#753636"/>
<stop offset="1" stop-color="#C16C6C" stop-opacity="0.2"/>
</linearGradient>
<linearGradient id="paint16_linear_12:195" x1="-246.293" y1="96.4932" x2="545.031" y2="96.4932" gradientUnits="userSpaceOnUse">
<stop stop-color="#753636"/>
<stop offset="1" stop-color="#C16C6C" stop-opacity="0.2"/>
</linearGradient>
<linearGradient id="paint17_linear_12:195" x1="-248.932" y1="91.5195" x2="537.531" y2="91.5195" gradientUnits="userSpaceOnUse">
<stop stop-color="#753636"/>
<stop offset="1" stop-color="#C16C6C" stop-opacity="0.2"/>
</linearGradient>
<linearGradient id="paint18_linear_12:195" x1="-251.572" y1="86.5457" x2="530.032" y2="86.5457" gradientUnits="userSpaceOnUse">
<stop stop-color="#753636"/>
<stop offset="1" stop-color="#C16C6C" stop-opacity="0.2"/>
</linearGradient>
<linearGradient id="paint19_linear_12:195" x1="-254.211" y1="81.572" x2="522.532" y2="81.5719" gradientUnits="userSpaceOnUse">
<stop stop-color="#753636"/>
<stop offset="1" stop-color="#C16C6C" stop-opacity="0.2"/>
</linearGradient>
<linearGradient id="paint20_linear_12:195" x1="-256.851" y1="76.5982" x2="515.032" y2="76.5982" gradientUnits="userSpaceOnUse">
<stop stop-color="#753636"/>
<stop offset="1" stop-color="#C16C6C" stop-opacity="0.2"/>
</linearGradient>
<linearGradient id="paint21_linear_12:195" x1="-259.49" y1="71.6244" x2="507.532" y2="71.6244" gradientUnits="userSpaceOnUse">
<stop stop-color="#753636"/>
<stop offset="1" stop-color="#C16C6C" stop-opacity="0.2"/>
</linearGradient>
<linearGradient id="paint22_linear_12:195" x1="-262.129" y1="66.6507" x2="500.032" y2="66.6507" gradientUnits="userSpaceOnUse">
<stop stop-color="#753636"/>
<stop offset="1" stop-color="#C16C6C" stop-opacity="0.2"/>
</linearGradient>
<linearGradient id="paint23_linear_12:195" x1="-264.769" y1="61.6769" x2="492.533" y2="61.6769" gradientUnits="userSpaceOnUse">
<stop stop-color="#753636"/>
<stop offset="1" stop-color="#C16C6C" stop-opacity="0.2"/>
</linearGradient>
<linearGradient id="paint24_linear_12:195" x1="-267.408" y1="56.7032" x2="485.033" y2="56.7031" gradientUnits="userSpaceOnUse">
<stop stop-color="#753636"/>
<stop offset="1" stop-color="#C16C6C" stop-opacity="0.2"/>
</linearGradient>
<linearGradient id="paint25_linear_12:195" x1="-270.048" y1="51.7294" x2="477.533" y2="51.7294" gradientUnits="userSpaceOnUse">
<stop stop-color="#753636"/>
<stop offset="1" stop-color="#C16C6C" stop-opacity="0.2"/>
</linearGradient>
<linearGradient id="paint26_linear_12:195" x1="-272.687" y1="46.7556" x2="470.033" y2="46.7556" gradientUnits="userSpaceOnUse">
<stop stop-color="#753636"/>
<stop offset="1" stop-color="#C16C6C" stop-opacity="0.2"/>
</linearGradient>
<linearGradient id="paint27_linear_12:195" x1="-275.327" y1="41.7819" x2="462.533" y2="41.7819" gradientUnits="userSpaceOnUse">
<stop stop-color="#753636"/>
<stop offset="1" stop-color="#C16C6C" stop-opacity="0.2"/>
</linearGradient>
<linearGradient id="paint28_linear_12:195" x1="-277.966" y1="36.8081" x2="455.034" y2="36.8081" gradientUnits="userSpaceOnUse">
<stop stop-color="#753636"/>
<stop offset="1" stop-color="#C16C6C" stop-opacity="0.2"/>
</linearGradient>
</defs>
</svg>
