<svg width="1440" height="866" viewBox="0 0 1440 866" fill="none" xmlns="http://www.w3.org/2000/svg">
<path opacity="0.0344828" d="M1430.93 293.232C1039.57 1198.65 104.395 75.1862 -331.694 926.077" stroke="url(#paint0_linear_118_1234)" stroke-opacity="0.2" stroke-width="5"/>
<path opacity="0.0689655" d="M1432.77 282.871C1039.12 1170.75 117.723 77.3661 -319.992 912.177" stroke="url(#paint1_linear_118_1234)" stroke-opacity="0.2" stroke-width="5"/>
<path opacity="0.103448" d="M1434.61 272.51C1038.68 1142.86 131.051 79.5456 -308.29 898.277" stroke="url(#paint2_linear_118_1234)" stroke-opacity="0.2" stroke-width="5"/>
<path opacity="0.137931" d="M1436.46 262.15C1038.24 1114.96 144.379 81.7259 -296.588 884.377" stroke="url(#paint3_linear_118_1234)" stroke-opacity="0.2" stroke-width="5"/>
<path opacity="0.172414" d="M1438.3 251.789C1037.79 1087.06 157.707 83.9065 -284.886 870.478" stroke="url(#paint4_linear_118_1234)" stroke-opacity="0.2" stroke-width="5"/>
<path opacity="0.206897" d="M1440.15 241.429C1037.35 1059.17 171.035 86.0868 -273.184 856.579" stroke="url(#paint5_linear_118_1234)" stroke-opacity="0.2" stroke-width="5"/>
<path opacity="0.241379" d="M1441.99 231.069C1036.9 1031.27 184.364 88.2677 -261.481 842.679" stroke="url(#paint6_linear_118_1234)" stroke-opacity="0.2" stroke-width="5"/>
<path opacity="0.275862" d="M1443.84 220.709C1036.45 1003.38 197.688 90.4477 -249.783 828.78" stroke="url(#paint7_linear_118_1234)" stroke-opacity="0.2" stroke-width="5"/>
<path opacity="0.310345" d="M1445.68 210.35C1036.01 975.481 211.017 92.63 -238.08 814.882" stroke="url(#paint8_linear_118_1234)" stroke-opacity="0.2" stroke-width="5"/>
<path opacity="0.344828" d="M1447.52 199.989C1035.56 947.584 224.343 94.8095 -226.38 800.982" stroke="url(#paint9_linear_118_1234)" stroke-opacity="0.2" stroke-width="5"/>
<path opacity="0.37931" d="M1449.37 189.629C1035.12 919.688 237.672 96.9904 -214.677 787.083" stroke="url(#paint10_linear_118_1234)" stroke-opacity="0.2" stroke-width="5"/>
<path opacity="0.413793" d="M1451.21 179.266C1034.67 891.79 251 99.1683 -202.975 773.181" stroke="url(#paint11_linear_118_1234)" stroke-opacity="0.2" stroke-width="5"/>
<path opacity="0.448276" d="M1453.06 168.907C1034.23 863.895 264.327 101.35 -191.274 759.283" stroke="url(#paint12_linear_118_1234)" stroke-opacity="0.2" stroke-width="5"/>
<path opacity="0.482759" d="M1454.9 158.546C1033.78 835.998 277.654 103.53 -179.572 745.382" stroke="url(#paint13_linear_118_1234)" stroke-opacity="0.2" stroke-width="5"/>
<path opacity="0.517241" d="M1456.75 148.185C1033.34 808.102 290.984 105.71 -167.869 731.482" stroke="url(#paint14_linear_118_1234)" stroke-opacity="0.2" stroke-width="5"/>
<path opacity="0.551724" d="M1458.59 137.825C1032.89 780.206 304.309 107.89 -156.169 717.583" stroke="url(#paint15_linear_118_1234)" stroke-opacity="0.2" stroke-width="5"/>
<path opacity="0.586207" d="M1460.44 127.466C1032.45 752.31 317.638 110.071 -144.467 703.684" stroke="url(#paint16_linear_118_1234)" stroke-opacity="0.2" stroke-width="5"/>
<path opacity="0.62069" d="M1462.28 117.106C1032 724.415 330.961 112.253 -132.77 689.786" stroke="url(#paint17_linear_118_1234)" stroke-opacity="0.2" stroke-width="5"/>
<path opacity="0.655172" d="M1464.12 106.744C1031.56 696.517 344.291 114.431 -121.065 675.885" stroke="url(#paint18_linear_118_1234)" stroke-opacity="0.2" stroke-width="5"/>
<path opacity="0.689655" d="M1465.97 96.3828C1031.11 668.62 357.618 116.611 -109.364 661.984" stroke="url(#paint19_linear_118_1234)" stroke-opacity="0.2" stroke-width="5"/>
<path opacity="0.724138" d="M1467.81 86.023C1030.67 640.725 370.949 118.792 -97.6599 648.085" stroke="url(#paint20_linear_118_1234)" stroke-opacity="0.2" stroke-width="5"/>
<path opacity="0.758621" d="M1469.66 75.6627C1030.22 612.829 384.277 120.972 -85.9579 634.186" stroke="url(#paint21_linear_118_1234)" stroke-opacity="0.2" stroke-width="5"/>
<path opacity="0.793103" d="M1471.5 65.3038C1029.78 584.934 397.601 123.154 -74.2593 620.288" stroke="url(#paint22_linear_118_1234)" stroke-opacity="0.2" stroke-width="5"/>
<path opacity="0.827586" d="M1473.34 54.9435C1029.33 557.038 410.929 125.334 -62.5579 606.388" stroke="url(#paint23_linear_118_1234)" stroke-opacity="0.2" stroke-width="5"/>
<path opacity="0.862069" d="M1475.19 44.5813C1028.89 529.14 424.258 127.513 -50.8541 592.487" stroke="url(#paint24_linear_118_1234)" stroke-opacity="0.2" stroke-width="5"/>
<path opacity="0.896552" d="M1477.03 34.2204C1028.44 501.243 437.584 129.693 -39.1541 578.587" stroke="url(#paint25_linear_118_1234)" stroke-opacity="0.2" stroke-width="5"/>
<path opacity="0.931035" d="M1478.88 23.8611C1028 473.348 450.911 131.874 -27.453 564.689" stroke="url(#paint26_linear_118_1234)" stroke-opacity="0.2" stroke-width="5"/>
<path opacity="0.965517" d="M1480.72 13.5018C1027.55 445.453 464.238 134.055 -15.7526 550.79" stroke="url(#paint27_linear_118_1234)" stroke-opacity="0.2" stroke-width="5"/>
<path d="M1482.57 3.14097C1027.11 417.557 477.568 136.235 -4.04849 536.89" stroke="url(#paint28_linear_118_1234)" stroke-opacity="0.2" stroke-width="5"/>
<defs>
<linearGradient id="paint0_linear_118_1234" x1="1386.67" y1="324.552" x2="-326.71" y2="939.717" gradientUnits="userSpaceOnUse">
<stop stop-color="#822222" stop-opacity="0.5"/>
<stop offset="1" stop-color="#B63030" stop-opacity="0.5"/>
</linearGradient>
<linearGradient id="paint1_linear_118_1234" x1="1388.67" y1="313.764" x2="-315.127" y2="925.489" gradientUnits="userSpaceOnUse">
<stop stop-color="#822222" stop-opacity="0.5"/>
<stop offset="1" stop-color="#B63030" stop-opacity="0.5"/>
</linearGradient>
<linearGradient id="paint2_linear_118_1234" x1="1390.67" y1="302.976" x2="-303.543" y2="911.261" gradientUnits="userSpaceOnUse">
<stop stop-color="#822222" stop-opacity="0.5"/>
<stop offset="1" stop-color="#B63030" stop-opacity="0.5"/>
</linearGradient>
<linearGradient id="paint3_linear_118_1234" x1="1392.67" y1="292.189" x2="-291.959" y2="897.034" gradientUnits="userSpaceOnUse">
<stop stop-color="#822222" stop-opacity="0.5"/>
<stop offset="1" stop-color="#B63030" stop-opacity="0.5"/>
</linearGradient>
<linearGradient id="paint4_linear_118_1234" x1="1394.67" y1="281.402" x2="-280.376" y2="882.806" gradientUnits="userSpaceOnUse">
<stop stop-color="#822222" stop-opacity="0.5"/>
<stop offset="1" stop-color="#B63030" stop-opacity="0.5"/>
</linearGradient>
<linearGradient id="paint5_linear_118_1234" x1="1396.68" y1="270.615" x2="-268.792" y2="868.579" gradientUnits="userSpaceOnUse">
<stop stop-color="#822222" stop-opacity="0.5"/>
<stop offset="1" stop-color="#B63030" stop-opacity="0.5"/>
</linearGradient>
<linearGradient id="paint6_linear_118_1234" x1="1398.68" y1="259.828" x2="-257.207" y2="854.352" gradientUnits="userSpaceOnUse">
<stop stop-color="#822222" stop-opacity="0.5"/>
<stop offset="1" stop-color="#B63030" stop-opacity="0.5"/>
</linearGradient>
<linearGradient id="paint7_linear_118_1234" x1="1400.68" y1="249.041" x2="-245.627" y2="840.124" gradientUnits="userSpaceOnUse">
<stop stop-color="#822222" stop-opacity="0.5"/>
<stop offset="1" stop-color="#B63030" stop-opacity="0.5"/>
</linearGradient>
<linearGradient id="paint8_linear_118_1234" x1="1402.68" y1="238.256" x2="-234.042" y2="825.899" gradientUnits="userSpaceOnUse">
<stop stop-color="#822222" stop-opacity="0.5"/>
<stop offset="1" stop-color="#B63030" stop-opacity="0.5"/>
</linearGradient>
<linearGradient id="paint9_linear_118_1234" x1="1404.68" y1="227.468" x2="-222.46" y2="811.671" gradientUnits="userSpaceOnUse">
<stop stop-color="#822222" stop-opacity="0.5"/>
<stop offset="1" stop-color="#B63030" stop-opacity="0.5"/>
</linearGradient>
<linearGradient id="paint10_linear_118_1234" x1="1406.68" y1="216.681" x2="-210.876" y2="797.444" gradientUnits="userSpaceOnUse">
<stop stop-color="#822222" stop-opacity="0.5"/>
<stop offset="1" stop-color="#B63030" stop-opacity="0.5"/>
</linearGradient>
<linearGradient id="paint11_linear_118_1234" x1="1408.68" y1="205.892" x2="-199.292" y2="783.214" gradientUnits="userSpaceOnUse">
<stop stop-color="#822222" stop-opacity="0.5"/>
<stop offset="1" stop-color="#B63030" stop-opacity="0.5"/>
</linearGradient>
<linearGradient id="paint12_linear_118_1234" x1="1410.69" y1="195.106" x2="-187.709" y2="768.988" gradientUnits="userSpaceOnUse">
<stop stop-color="#822222" stop-opacity="0.5"/>
<stop offset="1" stop-color="#B63030" stop-opacity="0.5"/>
</linearGradient>
<linearGradient id="paint13_linear_118_1234" x1="1412.69" y1="184.318" x2="-176.126" y2="754.76" gradientUnits="userSpaceOnUse">
<stop stop-color="#822222" stop-opacity="0.5"/>
<stop offset="1" stop-color="#B63030" stop-opacity="0.5"/>
</linearGradient>
<linearGradient id="paint14_linear_118_1234" x1="1414.69" y1="173.531" x2="-164.54" y2="740.532" gradientUnits="userSpaceOnUse">
<stop stop-color="#822222" stop-opacity="0.5"/>
<stop offset="1" stop-color="#B63030" stop-opacity="0.5"/>
</linearGradient>
<linearGradient id="paint15_linear_118_1234" x1="1416.69" y1="162.744" x2="-152.959" y2="726.305" gradientUnits="userSpaceOnUse">
<stop stop-color="#822222" stop-opacity="0.5"/>
<stop offset="1" stop-color="#B63030" stop-opacity="0.5"/>
</linearGradient>
<linearGradient id="paint16_linear_118_1234" x1="1418.69" y1="151.957" x2="-141.375" y2="712.078" gradientUnits="userSpaceOnUse">
<stop stop-color="#822222" stop-opacity="0.5"/>
<stop offset="1" stop-color="#B63030" stop-opacity="0.5"/>
</linearGradient>
<linearGradient id="paint17_linear_118_1234" x1="1420.69" y1="141.171" x2="-129.796" y2="697.852" gradientUnits="userSpaceOnUse">
<stop stop-color="#822222" stop-opacity="0.5"/>
<stop offset="1" stop-color="#B63030" stop-opacity="0.5"/>
</linearGradient>
<linearGradient id="paint18_linear_118_1234" x1="1422.69" y1="130.382" x2="-118.21" y2="683.623" gradientUnits="userSpaceOnUse">
<stop stop-color="#822222" stop-opacity="0.5"/>
<stop offset="1" stop-color="#B63030" stop-opacity="0.5"/>
</linearGradient>
<linearGradient id="paint19_linear_118_1234" x1="1424.69" y1="119.594" x2="-106.627" y2="669.395" gradientUnits="userSpaceOnUse">
<stop stop-color="#822222" stop-opacity="0.5"/>
<stop offset="1" stop-color="#B63030" stop-opacity="0.5"/>
</linearGradient>
<linearGradient id="paint20_linear_118_1234" x1="1426.7" y1="108.808" x2="-95.0407" y2="655.168" gradientUnits="userSpaceOnUse">
<stop stop-color="#822222" stop-opacity="0.5"/>
<stop offset="1" stop-color="#B63030" stop-opacity="0.5"/>
</linearGradient>
<linearGradient id="paint21_linear_118_1234" x1="1428.7" y1="98.0208" x2="-83.4567" y2="640.941" gradientUnits="userSpaceOnUse">
<stop stop-color="#822222" stop-opacity="0.5"/>
<stop offset="1" stop-color="#B63030" stop-opacity="0.5"/>
</linearGradient>
<linearGradient id="paint22_linear_118_1234" x1="1430.7" y1="87.2352" x2="-71.8765" y2="626.715" gradientUnits="userSpaceOnUse">
<stop stop-color="#822222" stop-opacity="0.5"/>
<stop offset="1" stop-color="#B63030" stop-opacity="0.5"/>
</linearGradient>
<linearGradient id="paint23_linear_118_1234" x1="1432.7" y1="76.4482" x2="-60.2931" y2="612.487" gradientUnits="userSpaceOnUse">
<stop stop-color="#822222" stop-opacity="0.5"/>
<stop offset="1" stop-color="#B63030" stop-opacity="0.5"/>
</linearGradient>
<linearGradient id="paint24_linear_118_1234" x1="1434.7" y1="65.6592" x2="-48.7076" y2="598.258" gradientUnits="userSpaceOnUse">
<stop stop-color="#822222" stop-opacity="0.5"/>
<stop offset="1" stop-color="#B63030" stop-opacity="0.5"/>
</linearGradient>
<linearGradient id="paint25_linear_118_1234" x1="1436.7" y1="54.8717" x2="-37.1258" y2="584.03" gradientUnits="userSpaceOnUse">
<stop stop-color="#822222" stop-opacity="0.5"/>
<stop offset="1" stop-color="#B63030" stop-opacity="0.5"/>
</linearGradient>
<linearGradient id="paint26_linear_118_1234" x1="1438.7" y1="44.0856" x2="-25.5428" y2="569.804" gradientUnits="userSpaceOnUse">
<stop stop-color="#822222" stop-opacity="0.5"/>
<stop offset="1" stop-color="#B63030" stop-opacity="0.5"/>
</linearGradient>
<linearGradient id="paint27_linear_118_1234" x1="1440.7" y1="33.2995" x2="-13.9607" y2="555.578" gradientUnits="userSpaceOnUse">
<stop stop-color="#822222" stop-opacity="0.5"/>
<stop offset="1" stop-color="#B63030" stop-opacity="0.5"/>
</linearGradient>
<linearGradient id="paint28_linear_118_1234" x1="1442.71" y1="22.512" x2="-2.37479" y2="541.35" gradientUnits="userSpaceOnUse">
<stop stop-color="#822222" stop-opacity="0.5"/>
<stop offset="1" stop-color="#B63030" stop-opacity="0.5"/>
</linearGradient>
</defs>
</svg>
