<svg width="375" height="638" viewBox="0 0 375 638" fill="none" xmlns="http://www.w3.org/2000/svg">
<path opacity="0.0344828" d="M-133.115 235.364C302.582 -450.824 468.021 941.043 911.422 322.158" stroke="url(#paint0_linear_191_392)" stroke-opacity="0.2" stroke-width="5"/>
<path opacity="0.0689655" d="M-136.792 244.218C295.372 -424.926 461.979 933.963 901.904 330.527" stroke="url(#paint1_linear_191_392)" stroke-opacity="0.2" stroke-width="5"/>
<path opacity="0.103448" d="M-140.469 253.072C288.161 -399.028 455.936 926.883 892.386 338.896" stroke="url(#paint2_linear_191_392)" stroke-opacity="0.2" stroke-width="5"/>
<path opacity="0.137931" d="M-144.145 261.926C280.95 -373.131 449.893 919.802 882.867 347.264" stroke="url(#paint3_linear_191_392)" stroke-opacity="0.2" stroke-width="5"/>
<path opacity="0.172414" d="M-147.822 270.779C273.739 -347.234 443.851 912.721 873.349 355.631" stroke="url(#paint4_linear_191_392)" stroke-opacity="0.2" stroke-width="5"/>
<path opacity="0.206897" d="M-151.499 279.632C266.529 -321.337 437.809 905.641 863.831 364" stroke="url(#paint5_linear_191_392)" stroke-opacity="0.2" stroke-width="5"/>
<path opacity="0.241379" d="M-155.176 288.486C259.317 -295.44 431.766 898.56 854.312 372.368" stroke="url(#paint6_linear_191_392)" stroke-opacity="0.2" stroke-width="5"/>
<path opacity="0.275862" d="M-158.851 297.341C252.108 -269.541 425.725 891.481 844.795 380.738" stroke="url(#paint7_linear_191_392)" stroke-opacity="0.2" stroke-width="5"/>
<path opacity="0.310345" d="M-162.528 306.192C244.897 -243.646 419.682 884.399 835.277 389.103" stroke="url(#paint8_linear_191_392)" stroke-opacity="0.2" stroke-width="5"/>
<path opacity="0.344828" d="M-166.204 315.047C237.687 -217.747 413.64 877.319 825.76 397.473" stroke="url(#paint9_linear_191_392)" stroke-opacity="0.2" stroke-width="5"/>
<path opacity="0.37931" d="M-169.881 323.9C230.477 -191.851 407.598 870.238 816.241 405.84" stroke="url(#paint10_linear_191_392)" stroke-opacity="0.2" stroke-width="5"/>
<path opacity="0.413793" d="M-173.559 332.755C223.265 -165.952 401.554 863.16 806.722 414.21" stroke="url(#paint11_linear_191_392)" stroke-opacity="0.2" stroke-width="5"/>
<path opacity="0.448276" d="M-177.235 341.608C216.055 -140.055 395.513 856.078 797.205 422.578" stroke="url(#paint12_linear_191_392)" stroke-opacity="0.2" stroke-width="5"/>
<path opacity="0.482759" d="M-180.911 350.462C208.845 -114.157 389.471 848.998 787.687 430.946" stroke="url(#paint13_linear_191_392)" stroke-opacity="0.2" stroke-width="5"/>
<path opacity="0.517241" d="M-184.589 359.316C201.632 -88.2596 383.427 841.918 778.167 439.315" stroke="url(#paint14_linear_191_392)" stroke-opacity="0.2" stroke-width="5"/>
<path opacity="0.551724" d="M-188.265 368.17C194.423 -62.3617 377.385 834.838 768.65 447.684" stroke="url(#paint15_linear_191_392)" stroke-opacity="0.2" stroke-width="5"/>
<path opacity="0.586207" d="M-191.942 377.023C187.212 -36.4656 371.343 827.757 759.132 456.051" stroke="url(#paint16_linear_191_392)" stroke-opacity="0.2" stroke-width="5"/>
<path opacity="0.62069" d="M-195.616 385.877C180.004 -10.5673 365.303 820.677 749.616 464.42" stroke="url(#paint17_linear_191_392)" stroke-opacity="0.2" stroke-width="5"/>
<path opacity="0.655172" d="M-199.294 394.732C172.792 15.3312 359.259 813.598 740.096 472.789" stroke="url(#paint18_linear_191_392)" stroke-opacity="0.2" stroke-width="5"/>
<path opacity="0.689655" d="M-202.971 403.586C165.581 41.229 353.217 806.518 730.578 481.158" stroke="url(#paint19_linear_191_392)" stroke-opacity="0.2" stroke-width="5"/>
<path opacity="0.724138" d="M-206.649 412.438C158.369 67.1251 347.173 799.436 721.059 489.525" stroke="url(#paint20_linear_191_392)" stroke-opacity="0.2" stroke-width="5"/>
<path opacity="0.758621" d="M-210.325 421.291C151.159 93.0219 341.131 792.355 711.54 497.892" stroke="url(#paint21_linear_191_392)" stroke-opacity="0.2" stroke-width="5"/>
<path opacity="0.793103" d="M-214 430.145C143.95 118.919 335.09 785.275 702.024 506.261" stroke="url(#paint22_linear_191_392)" stroke-opacity="0.2" stroke-width="5"/>
<path opacity="0.827586" d="M-217.677 438.999C136.739 144.817 329.048 778.195 692.506 514.629" stroke="url(#paint23_linear_191_392)" stroke-opacity="0.2" stroke-width="5"/>
<path opacity="0.862069" d="M-221.355 447.854C129.527 170.715 323.004 771.115 682.986 522.999" stroke="url(#paint24_linear_191_392)" stroke-opacity="0.2" stroke-width="5"/>
<path opacity="0.896552" d="M-225.031 456.708C122.317 196.614 316.962 764.036 673.469 531.368" stroke="url(#paint25_linear_191_392)" stroke-opacity="0.2" stroke-width="5"/>
<path opacity="0.931035" d="M-228.707 465.561C115.107 222.51 310.921 756.955 663.952 539.735" stroke="url(#paint26_linear_191_392)" stroke-opacity="0.2" stroke-width="5"/>
<path opacity="0.965517" d="M-232.383 474.414C107.898 248.407 304.879 749.874 654.434 548.103" stroke="url(#paint27_linear_191_392)" stroke-opacity="0.2" stroke-width="5"/>
<path d="M-236.061 483.267C100.686 274.304 298.835 742.793 644.915 556.471" stroke="url(#paint28_linear_191_392)" stroke-opacity="0.2" stroke-width="5"/>
<defs>
<linearGradient id="paint0_linear_191_392" x1="-102.776" y1="223.314" x2="912.58" y2="307.683" gradientUnits="userSpaceOnUse">
<stop stop-color="#822222" stop-opacity="0.5"/>
<stop offset="1" stop-color="#B63030" stop-opacity="0.5"/>
</linearGradient>
<linearGradient id="paint1_linear_191_392" x1="-106.645" y1="232.501" x2="903.033" y2="316.399" gradientUnits="userSpaceOnUse">
<stop stop-color="#822222" stop-opacity="0.5"/>
<stop offset="1" stop-color="#B63030" stop-opacity="0.5"/>
</linearGradient>
<linearGradient id="paint2_linear_191_392" x1="-110.514" y1="241.689" x2="893.486" y2="325.115" gradientUnits="userSpaceOnUse">
<stop stop-color="#822222" stop-opacity="0.5"/>
<stop offset="1" stop-color="#B63030" stop-opacity="0.5"/>
</linearGradient>
<linearGradient id="paint3_linear_191_392" x1="-114.382" y1="250.876" x2="883.939" y2="333.831" gradientUnits="userSpaceOnUse">
<stop stop-color="#822222" stop-opacity="0.5"/>
<stop offset="1" stop-color="#B63030" stop-opacity="0.5"/>
</linearGradient>
<linearGradient id="paint4_linear_191_392" x1="-118.251" y1="260.063" x2="874.392" y2="342.546" gradientUnits="userSpaceOnUse">
<stop stop-color="#822222" stop-opacity="0.5"/>
<stop offset="1" stop-color="#B63030" stop-opacity="0.5"/>
</linearGradient>
<linearGradient id="paint5_linear_191_392" x1="-122.119" y1="269.251" x2="864.845" y2="351.261" gradientUnits="userSpaceOnUse">
<stop stop-color="#822222" stop-opacity="0.5"/>
<stop offset="1" stop-color="#B63030" stop-opacity="0.5"/>
</linearGradient>
<linearGradient id="paint6_linear_191_392" x1="-125.988" y1="278.438" x2="855.298" y2="359.976" gradientUnits="userSpaceOnUse">
<stop stop-color="#822222" stop-opacity="0.5"/>
<stop offset="1" stop-color="#B63030" stop-opacity="0.5"/>
</linearGradient>
<linearGradient id="paint7_linear_191_392" x1="-129.856" y1="287.627" x2="845.752" y2="368.694" gradientUnits="userSpaceOnUse">
<stop stop-color="#822222" stop-opacity="0.5"/>
<stop offset="1" stop-color="#B63030" stop-opacity="0.5"/>
</linearGradient>
<linearGradient id="paint8_linear_191_392" x1="-133.724" y1="296.812" x2="836.206" y2="377.407" gradientUnits="userSpaceOnUse">
<stop stop-color="#822222" stop-opacity="0.5"/>
<stop offset="1" stop-color="#B63030" stop-opacity="0.5"/>
</linearGradient>
<linearGradient id="paint9_linear_191_392" x1="-137.592" y1="306" x2="826.659" y2="386.124" gradientUnits="userSpaceOnUse">
<stop stop-color="#822222" stop-opacity="0.5"/>
<stop offset="1" stop-color="#B63030" stop-opacity="0.5"/>
</linearGradient>
<linearGradient id="paint10_linear_191_392" x1="-141.461" y1="315.187" x2="817.113" y2="394.839" gradientUnits="userSpaceOnUse">
<stop stop-color="#822222" stop-opacity="0.5"/>
<stop offset="1" stop-color="#B63030" stop-opacity="0.5"/>
</linearGradient>
<linearGradient id="paint11_linear_191_392" x1="-145.33" y1="324.376" x2="807.565" y2="403.556" gradientUnits="userSpaceOnUse">
<stop stop-color="#822222" stop-opacity="0.5"/>
<stop offset="1" stop-color="#B63030" stop-opacity="0.5"/>
</linearGradient>
<linearGradient id="paint12_linear_191_392" x1="-149.198" y1="333.563" x2="798.019" y2="412.271" gradientUnits="userSpaceOnUse">
<stop stop-color="#822222" stop-opacity="0.5"/>
<stop offset="1" stop-color="#B63030" stop-opacity="0.5"/>
</linearGradient>
<linearGradient id="paint13_linear_191_392" x1="-153.066" y1="342.751" x2="788.472" y2="420.987" gradientUnits="userSpaceOnUse">
<stop stop-color="#822222" stop-opacity="0.5"/>
<stop offset="1" stop-color="#B63030" stop-opacity="0.5"/>
</linearGradient>
<linearGradient id="paint14_linear_191_392" x1="-156.936" y1="351.939" x2="778.924" y2="429.702" gradientUnits="userSpaceOnUse">
<stop stop-color="#822222" stop-opacity="0.5"/>
<stop offset="1" stop-color="#B63030" stop-opacity="0.5"/>
</linearGradient>
<linearGradient id="paint15_linear_191_392" x1="-160.803" y1="361.126" x2="769.378" y2="438.419" gradientUnits="userSpaceOnUse">
<stop stop-color="#822222" stop-opacity="0.5"/>
<stop offset="1" stop-color="#B63030" stop-opacity="0.5"/>
</linearGradient>
<linearGradient id="paint16_linear_191_392" x1="-164.672" y1="370.313" x2="759.831" y2="447.133" gradientUnits="userSpaceOnUse">
<stop stop-color="#822222" stop-opacity="0.5"/>
<stop offset="1" stop-color="#B63030" stop-opacity="0.5"/>
</linearGradient>
<linearGradient id="paint17_linear_191_392" x1="-168.538" y1="379.501" x2="750.287" y2="455.849" gradientUnits="userSpaceOnUse">
<stop stop-color="#822222" stop-opacity="0.5"/>
<stop offset="1" stop-color="#B63030" stop-opacity="0.5"/>
</linearGradient>
<linearGradient id="paint18_linear_191_392" x1="-172.408" y1="388.689" x2="740.738" y2="464.566" gradientUnits="userSpaceOnUse">
<stop stop-color="#822222" stop-opacity="0.5"/>
<stop offset="1" stop-color="#B63030" stop-opacity="0.5"/>
</linearGradient>
<linearGradient id="paint19_linear_191_392" x1="-176.276" y1="397.877" x2="731.192" y2="473.282" gradientUnits="userSpaceOnUse">
<stop stop-color="#822222" stop-opacity="0.5"/>
<stop offset="1" stop-color="#B63030" stop-opacity="0.5"/>
</linearGradient>
<linearGradient id="paint20_linear_191_392" x1="-180.146" y1="407.063" x2="721.644" y2="481.996" gradientUnits="userSpaceOnUse">
<stop stop-color="#822222" stop-opacity="0.5"/>
<stop offset="1" stop-color="#B63030" stop-opacity="0.5"/>
</linearGradient>
<linearGradient id="paint21_linear_191_392" x1="-184.015" y1="416.25" x2="712.097" y2="490.711" gradientUnits="userSpaceOnUse">
<stop stop-color="#822222" stop-opacity="0.5"/>
<stop offset="1" stop-color="#B63030" stop-opacity="0.5"/>
</linearGradient>
<linearGradient id="paint22_linear_191_392" x1="-187.881" y1="425.438" x2="702.552" y2="499.427" gradientUnits="userSpaceOnUse">
<stop stop-color="#822222" stop-opacity="0.5"/>
<stop offset="1" stop-color="#B63030" stop-opacity="0.5"/>
</linearGradient>
<linearGradient id="paint23_linear_191_392" x1="-191.75" y1="434.625" x2="693.006" y2="508.143" gradientUnits="userSpaceOnUse">
<stop stop-color="#822222" stop-opacity="0.5"/>
<stop offset="1" stop-color="#B63030" stop-opacity="0.5"/>
</linearGradient>
<linearGradient id="paint24_linear_191_392" x1="-195.62" y1="443.814" x2="683.457" y2="516.859" gradientUnits="userSpaceOnUse">
<stop stop-color="#822222" stop-opacity="0.5"/>
<stop offset="1" stop-color="#B63030" stop-opacity="0.5"/>
</linearGradient>
<linearGradient id="paint25_linear_191_392" x1="-199.487" y1="453.002" x2="673.911" y2="525.576" gradientUnits="userSpaceOnUse">
<stop stop-color="#822222" stop-opacity="0.5"/>
<stop offset="1" stop-color="#B63030" stop-opacity="0.5"/>
</linearGradient>
<linearGradient id="paint26_linear_191_392" x1="-203.355" y1="462.189" x2="664.365" y2="534.291" gradientUnits="userSpaceOnUse">
<stop stop-color="#822222" stop-opacity="0.5"/>
<stop offset="1" stop-color="#B63030" stop-opacity="0.5"/>
</linearGradient>
<linearGradient id="paint27_linear_191_392" x1="-207.223" y1="471.376" x2="654.819" y2="543.006" gradientUnits="userSpaceOnUse">
<stop stop-color="#822222" stop-opacity="0.5"/>
<stop offset="1" stop-color="#B63030" stop-opacity="0.5"/>
</linearGradient>
<linearGradient id="paint28_linear_191_392" x1="-211.092" y1="480.563" x2="645.271" y2="551.721" gradientUnits="userSpaceOnUse">
<stop stop-color="#822222" stop-opacity="0.5"/>
<stop offset="1" stop-color="#B63030" stop-opacity="0.5"/>
</linearGradient>
</defs>
</svg>
