<svg width="1440" height="759" viewBox="0 0 1440 759" fill="none" xmlns="http://www.w3.org/2000/svg">
<path opacity="0.0344828" d="M-255.076 176.15C548.16 -148.075 912.897 830.628 1733.21 553.637" stroke="url(#paint0_linear_118_878)" stroke-opacity="0.2" stroke-width="5"/>
<path opacity="0.0689655" d="M-261.743 180.929C535.392 -133.012 901.157 824.058 1715.42 556.305" stroke="url(#paint1_linear_118_878)" stroke-opacity="0.2" stroke-width="5"/>
<path opacity="0.103448" d="M-268.411 185.708C522.624 -117.95 889.417 817.489 1697.63 558.973" stroke="url(#paint2_linear_118_878)" stroke-opacity="0.2" stroke-width="5"/>
<path opacity="0.137931" d="M-275.079 190.486C509.856 -102.889 877.677 810.918 1679.85 561.64" stroke="url(#paint3_linear_118_878)" stroke-opacity="0.2" stroke-width="5"/>
<path opacity="0.172414" d="M-281.747 195.264C497.088 -87.8278 865.937 804.347 1662.06 564.307" stroke="url(#paint4_linear_118_878)" stroke-opacity="0.2" stroke-width="5"/>
<path opacity="0.206897" d="M-288.414 200.042C484.321 -72.7662 854.198 797.777 1644.27 566.974" stroke="url(#paint5_linear_118_878)" stroke-opacity="0.2" stroke-width="5"/>
<path opacity="0.241379" d="M-295.082 204.821C471.552 -57.7045 842.457 791.207 1626.48 569.642" stroke="url(#paint6_linear_118_878)" stroke-opacity="0.2" stroke-width="5"/>
<path opacity="0.275862" d="M-301.747 209.601C458.787 -42.6414 830.72 784.639 1608.7 572.311" stroke="url(#paint7_linear_118_878)" stroke-opacity="0.2" stroke-width="5"/>
<path opacity="0.310345" d="M-308.415 214.378C446.02 -27.5811 818.98 778.067 1590.91 574.977" stroke="url(#paint8_linear_118_878)" stroke-opacity="0.2" stroke-width="5"/>
<path opacity="0.344828" d="M-315.081 219.157C433.254 -12.5185 807.242 771.498 1573.13 577.645" stroke="url(#paint9_linear_118_878)" stroke-opacity="0.2" stroke-width="5"/>
<path opacity="0.37931" d="M-321.749 223.935C420.486 2.54274 795.503 764.928 1555.34 580.312" stroke="url(#paint10_linear_118_878)" stroke-opacity="0.2" stroke-width="5"/>
<path opacity="0.413793" d="M-328.419 228.715C407.716 17.6054 783.761 758.359 1537.55 582.98" stroke="url(#paint11_linear_118_878)" stroke-opacity="0.2" stroke-width="5"/>
<path opacity="0.448276" d="M-335.085 233.493C394.95 32.6667 772.023 751.788 1519.77 585.647" stroke="url(#paint12_linear_118_878)" stroke-opacity="0.2" stroke-width="5"/>
<path opacity="0.482759" d="M-341.752 238.272C382.182 47.7288 760.283 745.218 1501.98 588.315" stroke="url(#paint13_linear_118_878)" stroke-opacity="0.2" stroke-width="5"/>
<path opacity="0.517241" d="M-348.421 243.05C369.413 62.7899 748.542 738.648 1484.19 590.982" stroke="url(#paint14_linear_118_878)" stroke-opacity="0.2" stroke-width="5"/>
<path opacity="0.551724" d="M-355.086 247.829C356.648 77.8526 736.804 732.079 1466.41 593.65" stroke="url(#paint15_linear_118_878)" stroke-opacity="0.2" stroke-width="5"/>
<path opacity="0.586207" d="M-361.754 252.607C343.879 92.9133 725.064 725.508 1448.62 596.317" stroke="url(#paint16_linear_118_878)" stroke-opacity="0.2" stroke-width="5"/>
<path opacity="0.62069" d="M-368.417 257.386C331.117 107.976 713.33 718.939 1430.84 598.986" stroke="url(#paint17_linear_118_878)" stroke-opacity="0.2" stroke-width="5"/>
<path opacity="0.655172" d="M-375.088 262.165C318.346 123.038 701.586 712.369 1413.05 601.653" stroke="url(#paint18_linear_118_878)" stroke-opacity="0.2" stroke-width="5"/>
<path opacity="0.689655" d="M-381.755 266.944C305.578 138.1 689.847 705.8 1395.26 604.321" stroke="url(#paint19_linear_118_878)" stroke-opacity="0.2" stroke-width="5"/>
<path opacity="0.724138" d="M-388.425 271.721C292.808 153.161 678.105 699.229 1377.47 606.987" stroke="url(#paint20_linear_118_878)" stroke-opacity="0.2" stroke-width="5"/>
<path opacity="0.758621" d="M-395.092 276.499C280.041 168.222 666.366 692.658 1359.69 609.654" stroke="url(#paint21_linear_118_878)" stroke-opacity="0.2" stroke-width="5"/>
<path opacity="0.793103" d="M-401.756 281.279C267.277 183.285 654.63 686.089 1341.9 612.322" stroke="url(#paint22_linear_118_878)" stroke-opacity="0.2" stroke-width="5"/>
<path opacity="0.827586" d="M-408.423 286.057C254.509 198.347 642.89 679.519 1324.11 614.99" stroke="url(#paint23_linear_118_878)" stroke-opacity="0.2" stroke-width="5"/>
<path opacity="0.862069" d="M-415.094 290.836C241.739 213.408 631.148 672.949 1306.33 617.657" stroke="url(#paint24_linear_118_878)" stroke-opacity="0.2" stroke-width="5"/>
<path opacity="0.896552" d="M-421.76 295.615C228.973 228.471 619.41 666.38 1288.54 620.326" stroke="url(#paint25_linear_118_878)" stroke-opacity="0.2" stroke-width="5"/>
<path opacity="0.931035" d="M-428.426 300.393C216.207 243.532 607.672 659.809 1270.75 622.992" stroke="url(#paint26_linear_118_878)" stroke-opacity="0.2" stroke-width="5"/>
<path opacity="0.965517" d="M-435.092 305.171C203.441 258.594 595.934 653.239 1252.97 625.66" stroke="url(#paint27_linear_118_878)" stroke-opacity="0.2" stroke-width="5"/>
<path d="M-441.762 309.949C190.671 273.655 584.192 646.669 1235.18 628.327" stroke="url(#paint28_linear_118_878)" stroke-opacity="0.2" stroke-width="5"/>
<defs>
<linearGradient id="paint0_linear_118_878" x1="-197.853" y1="177.398" x2="1734.88" y2="544.34" gradientUnits="userSpaceOnUse">
<stop stop-color="#822222" stop-opacity="0.5"/>
<stop offset="1" stop-color="#B63030" stop-opacity="0.5"/>
</linearGradient>
<linearGradient id="paint1_linear_118_878" x1="-204.873" y1="182.341" x2="1717.05" y2="547.231" gradientUnits="userSpaceOnUse">
<stop stop-color="#822222" stop-opacity="0.5"/>
<stop offset="1" stop-color="#B63030" stop-opacity="0.5"/>
</linearGradient>
<linearGradient id="paint2_linear_118_878" x1="-211.894" y1="187.284" x2="1699.23" y2="550.121" gradientUnits="userSpaceOnUse">
<stop stop-color="#822222" stop-opacity="0.5"/>
<stop offset="1" stop-color="#B63030" stop-opacity="0.5"/>
</linearGradient>
<linearGradient id="paint3_linear_118_878" x1="-218.914" y1="192.226" x2="1681.4" y2="553.011" gradientUnits="userSpaceOnUse">
<stop stop-color="#822222" stop-opacity="0.5"/>
<stop offset="1" stop-color="#B63030" stop-opacity="0.5"/>
</linearGradient>
<linearGradient id="paint4_linear_118_878" x1="-225.934" y1="197.168" x2="1663.57" y2="555.901" gradientUnits="userSpaceOnUse">
<stop stop-color="#822222" stop-opacity="0.5"/>
<stop offset="1" stop-color="#B63030" stop-opacity="0.5"/>
</linearGradient>
<linearGradient id="paint5_linear_118_878" x1="-232.954" y1="202.11" x2="1645.74" y2="558.791" gradientUnits="userSpaceOnUse">
<stop stop-color="#822222" stop-opacity="0.5"/>
<stop offset="1" stop-color="#B63030" stop-opacity="0.5"/>
</linearGradient>
<linearGradient id="paint6_linear_118_878" x1="-239.974" y1="207.052" x2="1627.91" y2="561.681" gradientUnits="userSpaceOnUse">
<stop stop-color="#822222" stop-opacity="0.5"/>
<stop offset="1" stop-color="#B63030" stop-opacity="0.5"/>
</linearGradient>
<linearGradient id="paint7_linear_118_878" x1="-246.992" y1="211.996" x2="1610.08" y2="564.573" gradientUnits="userSpaceOnUse">
<stop stop-color="#822222" stop-opacity="0.5"/>
<stop offset="1" stop-color="#B63030" stop-opacity="0.5"/>
</linearGradient>
<linearGradient id="paint8_linear_118_878" x1="-254.012" y1="216.937" x2="1592.25" y2="567.462" gradientUnits="userSpaceOnUse">
<stop stop-color="#822222" stop-opacity="0.5"/>
<stop offset="1" stop-color="#B63030" stop-opacity="0.5"/>
</linearGradient>
<linearGradient id="paint9_linear_118_878" x1="-261.03" y1="221.88" x2="1574.43" y2="570.353" gradientUnits="userSpaceOnUse">
<stop stop-color="#822222" stop-opacity="0.5"/>
<stop offset="1" stop-color="#B63030" stop-opacity="0.5"/>
</linearGradient>
<linearGradient id="paint10_linear_118_878" x1="-268.051" y1="226.822" x2="1556.6" y2="573.243" gradientUnits="userSpaceOnUse">
<stop stop-color="#822222" stop-opacity="0.5"/>
<stop offset="1" stop-color="#B63030" stop-opacity="0.5"/>
</linearGradient>
<linearGradient id="paint11_linear_118_878" x1="-275.073" y1="231.765" x2="1538.77" y2="576.134" gradientUnits="userSpaceOnUse">
<stop stop-color="#822222" stop-opacity="0.5"/>
<stop offset="1" stop-color="#B63030" stop-opacity="0.5"/>
</linearGradient>
<linearGradient id="paint12_linear_118_878" x1="-282.091" y1="236.707" x2="1520.94" y2="579.024" gradientUnits="userSpaceOnUse">
<stop stop-color="#822222" stop-opacity="0.5"/>
<stop offset="1" stop-color="#B63030" stop-opacity="0.5"/>
</linearGradient>
<linearGradient id="paint13_linear_118_878" x1="-289.111" y1="241.65" x2="1503.11" y2="581.914" gradientUnits="userSpaceOnUse">
<stop stop-color="#822222" stop-opacity="0.5"/>
<stop offset="1" stop-color="#B63030" stop-opacity="0.5"/>
</linearGradient>
<linearGradient id="paint14_linear_118_878" x1="-296.133" y1="246.592" x2="1485.28" y2="584.804" gradientUnits="userSpaceOnUse">
<stop stop-color="#822222" stop-opacity="0.5"/>
<stop offset="1" stop-color="#B63030" stop-opacity="0.5"/>
</linearGradient>
<linearGradient id="paint15_linear_118_878" x1="-303.15" y1="251.535" x2="1467.46" y2="587.695" gradientUnits="userSpaceOnUse">
<stop stop-color="#822222" stop-opacity="0.5"/>
<stop offset="1" stop-color="#B63030" stop-opacity="0.5"/>
</linearGradient>
<linearGradient id="paint16_linear_118_878" x1="-310.171" y1="256.476" x2="1449.63" y2="590.584" gradientUnits="userSpaceOnUse">
<stop stop-color="#822222" stop-opacity="0.5"/>
<stop offset="1" stop-color="#B63030" stop-opacity="0.5"/>
</linearGradient>
<linearGradient id="paint17_linear_118_878" x1="-317.186" y1="261.42" x2="1431.8" y2="593.476" gradientUnits="userSpaceOnUse">
<stop stop-color="#822222" stop-opacity="0.5"/>
<stop offset="1" stop-color="#B63030" stop-opacity="0.5"/>
</linearGradient>
<linearGradient id="paint18_linear_118_878" x1="-324.209" y1="266.363" x2="1413.97" y2="596.366" gradientUnits="userSpaceOnUse">
<stop stop-color="#822222" stop-opacity="0.5"/>
<stop offset="1" stop-color="#B63030" stop-opacity="0.5"/>
</linearGradient>
<linearGradient id="paint19_linear_118_878" x1="-331.229" y1="271.305" x2="1396.14" y2="599.257" gradientUnits="userSpaceOnUse">
<stop stop-color="#822222" stop-opacity="0.5"/>
<stop offset="1" stop-color="#B63030" stop-opacity="0.5"/>
</linearGradient>
<linearGradient id="paint20_linear_118_878" x1="-338.251" y1="276.247" x2="1378.31" y2="602.146" gradientUnits="userSpaceOnUse">
<stop stop-color="#822222" stop-opacity="0.5"/>
<stop offset="1" stop-color="#B63030" stop-opacity="0.5"/>
</linearGradient>
<linearGradient id="paint21_linear_118_878" x1="-345.271" y1="281.189" x2="1360.48" y2="605.036" gradientUnits="userSpaceOnUse">
<stop stop-color="#822222" stop-opacity="0.5"/>
<stop offset="1" stop-color="#B63030" stop-opacity="0.5"/>
</linearGradient>
<linearGradient id="paint22_linear_118_878" x1="-352.287" y1="286.132" x2="1342.66" y2="607.927" gradientUnits="userSpaceOnUse">
<stop stop-color="#822222" stop-opacity="0.5"/>
<stop offset="1" stop-color="#B63030" stop-opacity="0.5"/>
</linearGradient>
<linearGradient id="paint23_linear_118_878" x1="-359.307" y1="291.074" x2="1324.83" y2="610.818" gradientUnits="userSpaceOnUse">
<stop stop-color="#822222" stop-opacity="0.5"/>
<stop offset="1" stop-color="#B63030" stop-opacity="0.5"/>
</linearGradient>
<linearGradient id="paint24_linear_118_878" x1="-366.33" y1="296.017" x2="1307" y2="613.708" gradientUnits="userSpaceOnUse">
<stop stop-color="#822222" stop-opacity="0.5"/>
<stop offset="1" stop-color="#B63030" stop-opacity="0.5"/>
</linearGradient>
<linearGradient id="paint25_linear_118_878" x1="-373.348" y1="300.96" x2="1289.17" y2="616.599" gradientUnits="userSpaceOnUse">
<stop stop-color="#822222" stop-opacity="0.5"/>
<stop offset="1" stop-color="#B63030" stop-opacity="0.5"/>
</linearGradient>
<linearGradient id="paint26_linear_118_878" x1="-380.367" y1="305.902" x2="1271.34" y2="619.489" gradientUnits="userSpaceOnUse">
<stop stop-color="#822222" stop-opacity="0.5"/>
<stop offset="1" stop-color="#B63030" stop-opacity="0.5"/>
</linearGradient>
<linearGradient id="paint27_linear_118_878" x1="-387.385" y1="310.844" x2="1253.52" y2="622.379" gradientUnits="userSpaceOnUse">
<stop stop-color="#822222" stop-opacity="0.5"/>
<stop offset="1" stop-color="#B63030" stop-opacity="0.5"/>
</linearGradient>
<linearGradient id="paint28_linear_118_878" x1="-394.408" y1="315.786" x2="1235.69" y2="625.269" gradientUnits="userSpaceOnUse">
<stop stop-color="#822222" stop-opacity="0.5"/>
<stop offset="1" stop-color="#B63030" stop-opacity="0.5"/>
</linearGradient>
</defs>
</svg>
